{"glyphs":{"0":{"ha":885,"x_min":0,"x_max":0,"o":"m 444 97 b 217 486 318 97 217 253 b 444 879 217 721 318 879 b 668 486 571 879 668 721 b 444 97 668 253 571 97 z m 446 985 b 83 485 243 985 83 779 b 446 -14 83 190 243 -14 b 801 485 647 -14 801 190 b 446 985 801 779 647 985 z "},"1":{"ha":425,"x_min":0,"x_max":0,"o":"m 74 801 b 72 786 68 797 68 792 b 164 735 92 764 125 735 b 214 751 181 735 197 740 l 214 10 b 225 -1 214 3 218 -1 b 342 107 283 -1 342 -1 l 342 961 b 326 972 342 968 336 972 b 231 924 299 972 275 958 z "},"2":{"ha":825,"x_min":0,"x_max":0,"o":"m 94 0 l 744 0 b 756 11 751 0 756 4 b 663 111 756 74 725 111 l 319 111 b 315 119 313 111 311 115 b 701 692 479 290 701 507 b 394 985 701 819 592 985 b 138 897 272 985 171 921 b 142 875 132 893 129 888 b 218 844 164 853 190 844 b 397 876 274 844 336 876 b 575 692 492 876 575 799 b 124 119 575 471 208 208 b 83 11 85 78 85 54 b 94 0 83 4 88 0 z "},"3":{"ha":750,"x_min":0,"x_max":0,"o":"m 165 547 b 247 453 165 485 185 453 b 539 260 461 453 539 353 b 331 97 539 175 474 97 b 126 161 288 97 204 108 b 115 164 124 164 119 164 b 90 113 96 164 72 138 b 363 -14 143 38 247 -14 b 667 254 517 -14 667 67 b 460 522 667 410 563 494 b 458 529 453 524 453 526 b 624 776 496 546 624 614 b 371 985 624 868 557 985 b 100 892 286 985 196 956 b 100 874 92 886 90 882 b 179 842 128 849 153 842 b 346 868 226 842 274 868 b 496 769 422 868 496 838 b 176 558 496 660 292 563 b 165 547 169 558 165 554 z "},"4":{"ha":801,"x_min":0,"x_max":0,"o":"m 69 328 b 81 317 69 321 74 317 l 510 315 l 510 11 b 519 1 510 4 514 0 b 638 107 551 6 638 21 l 638 315 b 718 401 711 315 718 378 b 710 424 718 418 717 424 l 638 424 l 646 956 b 632 968 646 963 642 968 b 563 924 622 968 600 960 l 126 490 b 69 328 82 446 69 383 z m 210 424 l 510 713 l 510 424 z "},"5":{"ha":751,"x_min":0,"x_max":0,"o":"m 235 649 l 268 865 l 574 865 b 682 963 675 865 679 919 b 671 974 682 968 678 974 l 263 974 b 151 883 188 974 161 922 l 99 568 b 164 526 94 546 110 526 b 215 531 179 526 196 528 b 310 538 250 536 282 538 b 547 340 492 538 547 442 b 308 111 547 235 465 111 b 107 154 239 111 161 133 b 100 156 104 156 103 156 b 79 97 78 156 56 118 b 342 0 156 31 254 0 b 675 349 544 0 675 164 b 354 650 675 535 547 650 b 244 639 319 650 283 646 b 235 649 238 638 233 642 z "},"6":{"ha":842,"x_min":0,"x_max":0,"o":"m 233 610 b 488 888 233 743 297 888 b 649 839 542 888 585 872 b 660 836 653 838 656 836 b 671 885 676 836 689 858 b 446 990 610 969 517 990 b 83 482 185 990 83 732 b 422 0 83 144 219 0 b 758 338 631 0 758 138 b 446 671 758 561 611 671 b 242 606 364 671 300 647 b 236 603 239 604 236 603 b 233 610 233 603 233 606 z m 429 563 b 631 331 551 563 631 458 b 435 108 631 219 569 108 b 225 351 306 108 225 222 b 429 563 225 521 353 563 z "},"7":{"ha":776,"x_min":0,"x_max":0,"o":"m 160 10 b 167 0 157 4 160 0 b 329 68 229 0 297 4 l 729 847 b 621 972 753 894 696 972 l 67 972 b 56 961 60 972 56 967 b 158 865 57 925 63 865 l 599 865 z "},"8":{"ha":783,"x_min":0,"x_max":0,"o":"m 229 510 b 83 247 124 440 83 343 b 397 -15 83 76 215 -15 b 714 254 572 -15 714 76 b 575 508 714 338 688 429 b 575 519 569 513 569 515 b 688 732 636 558 688 635 b 408 992 688 865 590 992 b 113 732 236 992 113 890 b 229 519 113 633 164 569 b 229 510 235 515 235 514 z m 210 260 b 403 429 210 349 279 429 b 588 260 533 429 588 338 b 401 96 588 179 525 96 b 210 260 288 96 210 164 z m 399 579 b 240 738 283 579 240 671 b 403 876 240 828 315 876 b 560 739 474 876 560 836 b 399 579 560 669 522 579 z "},"9":{"ha":828,"x_min":0,"x_max":0,"o":"m 600 365 b 325 93 600 189 467 93 b 164 135 254 93 201 117 b 154 138 161 136 158 138 b 140 88 135 138 118 110 b 374 0 189 42 276 0 b 758 571 661 0 758 257 b 419 985 758 821 617 985 b 83 661 208 985 83 831 b 397 313 83 465 217 313 b 590 371 467 313 532 335 b 594 372 592 372 593 372 b 600 365 599 372 600 369 z m 617 639 b 413 419 617 478 507 419 b 211 651 293 419 211 524 b 407 876 211 763 294 876 b 617 639 507 876 617 813 z "},"\u0000":{"ha":0,"x_min":0,"x_max":0,"o":""},"\r":{"ha":111,"x_min":0,"x_max":0,"o":""}," ":{"ha":347,"x_min":0,"x_max":0,"o":""},"!":{"ha":300,"x_min":0,"x_max":0,"o":"m 221 1006 b 210 1017 221 1013 215 1017 b 82 910 167 1014 78 1014 l 104 244 b 115 235 104 238 110 235 b 210 340 150 238 208 254 z m 150 165 b 69 83 106 165 69 128 b 150 4 69 39 106 4 b 231 83 194 4 231 39 b 150 165 231 128 194 165 z "},"\"":{"ha":521,"x_min":0,"x_max":0,"o":"m 50 713 l 158 713 b 171 722 165 713 169 717 b 250 1054 189 825 219 971 b 239 1065 253 1060 250 1064 b 181 1044 214 1065 200 1061 b 42 722 114 988 75 842 b 50 713 40 717 43 713 z m 279 713 l 385 713 b 397 722 392 713 396 717 b 478 1054 415 825 449 971 b 465 1067 481 1060 476 1065 b 410 1044 442 1067 428 1061 b 271 722 344 986 306 842 b 279 713 269 717 272 713 z "},"#":{"ha":1089,"x_min":0,"x_max":0,"o":"m 67 282 l 278 282 l 257 143 b 344 6 239 26 321 7 b 350 6 347 6 349 6 b 364 14 358 6 363 8 l 408 282 l 408 283 l 614 283 l 614 282 l 556 10 b 564 -1 554 4 558 -1 b 590 -3 572 -1 581 -3 b 706 107 633 -3 686 11 l 742 282 l 863 282 b 1007 385 993 282 1003 346 b 997 396 1007 390 1004 396 l 763 396 l 793 544 l 1022 544 b 1033 568 1029 544 1033 550 b 893 654 1032 592 1022 654 l 811 654 l 869 906 b 861 917 871 911 867 917 b 836 918 853 917 844 918 b 711 793 790 918 732 904 l 685 653 l 461 653 l 482 768 b 406 924 507 908 440 924 b 400 924 404 924 401 924 b 375 913 382 922 376 918 l 335 653 l 93 653 b 82 642 86 653 82 647 b 208 544 85 606 93 544 l 318 544 l 296 396 l 182 396 b 56 293 65 396 57 331 b 67 282 56 288 60 282 z m 424 392 l 424 396 l 447 544 l 661 544 l 631 392 z "},"$":{"ha":639,"x_min":0,"x_max":0,"o":"m 82 172 b 88 157 79 167 81 160 b 257 121 142 133 211 121 l 257 11 b 267 1 257 4 261 0 b 374 133 354 11 374 44 b 583 383 501 165 583 278 b 367 632 583 517 458 588 b 181 800 300 664 181 710 b 314 915 181 869 247 915 b 421 901 350 915 385 901 b 508 965 461 901 500 924 b 501 988 511 979 507 985 b 374 1019 479 994 450 1004 l 374 1156 b 364 1165 374 1163 369 1167 b 257 1015 263 1154 257 1108 b 56 785 140 989 56 894 b 299 529 56 653 178 583 b 458 374 375 494 458 463 b 297 236 458 278 378 236 b 164 253 243 236 199 253 b 136 247 154 253 144 251 b 82 172 122 242 103 225 z "},"%":{"ha":1024,"x_min":0,"x_max":0,"o":"m 219 -6 b 365 117 279 -6 317 19 l 788 964 b 769 974 790 969 786 974 b 647 876 751 974 692 967 l 214 7 b 219 -6 211 1 214 -6 z m 249 975 b 69 714 157 975 69 856 b 249 446 69 574 157 446 b 426 710 342 446 426 569 b 249 975 426 850 342 975 z m 249 533 b 157 707 197 533 157 615 b 249 886 157 799 197 886 b 339 707 300 886 339 799 b 249 533 339 615 300 533 z m 775 529 b 597 268 682 529 597 408 b 775 -1 597 128 682 -1 b 954 264 867 -1 954 124 b 775 529 954 404 867 529 z m 775 88 b 685 258 724 88 685 171 b 779 442 685 351 728 442 b 867 263 831 442 867 351 b 775 88 867 171 826 88 z "},"&":{"ha":978,"x_min":0,"x_max":0,"o":"m 661 286 l 436 532 b 439 546 432 538 433 543 b 651 813 531 594 651 657 b 422 1025 651 939 581 1025 b 178 813 264 1025 188 922 b 246 572 169 732 197 638 b 243 558 250 567 249 563 b 56 274 157 499 56 414 b 388 -8 56 135 157 -8 b 665 83 494 -8 588 29 b 672 86 668 85 671 86 b 682 82 676 86 679 85 l 714 50 b 915 0 763 1 849 0 b 919 7 922 0 924 3 l 776 172 b 774 190 774 176 771 185 l 826 313 b 792 549 863 397 843 472 b 761 574 779 567 768 574 b 746 554 751 574 747 565 b 672 288 744 494 735 421 b 667 282 671 285 668 282 b 661 286 665 282 663 283 z m 581 172 b 397 111 536 138 476 111 b 188 288 256 111 188 196 b 308 475 188 376 250 436 b 315 478 311 476 313 478 b 325 472 319 478 322 475 l 582 188 b 581 172 586 182 586 176 z m 415 917 b 528 813 493 917 528 868 b 372 635 528 726 443 674 b 367 633 371 633 368 633 b 357 639 363 633 360 635 b 297 794 325 689 299 739 b 415 917 294 876 346 917 z "},"'":{"ha":299,"x_min":0,"x_max":0,"o":"m 117 972 b 104 963 111 974 106 969 b 42 731 89 890 65 790 b 56 719 39 725 42 721 b 149 743 86 719 124 722 b 240 960 183 775 215 876 b 233 971 243 967 239 969 z "},"(":{"ha":414,"x_min":0,"x_max":0,"o":"m 340 1043 b 229 1003 311 1043 269 1040 b 56 450 168 947 56 771 b 264 -143 56 76 261 -140 b 338 -168 265 -144 283 -168 b 357 -160 357 -168 361 -165 b 182 450 324 -111 182 117 b 344 1033 182 756 303 971 b 340 1043 349 1039 347 1043 z "},")":{"ha":414,"x_min":0,"x_max":0,"o":"m 74 1040 b 69 1028 67 1039 65 1033 b 232 450 111 965 232 756 b 57 -160 232 117 90 -111 b 76 -168 53 -165 57 -168 b 150 -143 131 -168 149 -144 b 358 450 153 -140 363 76 b 185 1003 356 778 213 965 b 111 1046 161 1035 139 1046 b 74 1040 100 1046 88 1043 z "},"*":{"ha":797,"x_min":0,"x_max":0,"o":"m 176 947 l 303 743 l 150 743 b 56 653 71 743 57 672 b 65 633 54 639 58 633 l 301 633 l 176 433 b 179 419 174 428 174 422 b 240 399 194 411 217 399 b 315 450 265 399 292 411 l 399 586 l 483 450 b 558 399 508 411 535 399 b 618 419 582 399 603 411 b 621 433 624 422 624 428 l 496 638 l 647 638 b 742 728 726 638 740 708 b 732 747 743 742 739 747 l 497 747 l 621 947 b 604 971 624 953 624 958 b 561 983 596 975 581 983 b 483 929 538 983 510 972 l 399 793 l 315 929 b 238 983 289 972 261 983 b 192 969 217 983 200 975 b 176 947 174 958 174 953 z "},"+":{"ha":935,"x_min":0,"x_max":0,"o":"m 153 424 l 404 424 l 404 88 b 414 78 404 81 408 76 b 531 182 446 82 531 97 l 531 424 l 868 424 b 879 443 875 424 879 429 b 782 533 879 468 865 533 l 531 533 l 531 869 b 519 881 531 876 525 881 b 404 775 488 878 404 860 l 404 533 l 67 533 b 56 522 60 533 56 528 b 153 424 56 486 69 424 z "},",":{"ha":318,"x_min":0,"x_max":0,"o":"m 65 -108 b 85 -111 72 -110 79 -111 b 143 -79 107 -111 125 -101 b 263 215 199 -18 231 103 b 254 225 264 221 261 225 l 143 225 b 131 215 136 225 132 221 b 58 -94 115 121 85 -15 b 65 -108 56 -101 58 -107 z "},"-":{"ha":585,"x_min":0,"x_max":0,"o":"m 56 564 b 161 467 56 514 83 467 l 518 467 b 529 478 525 467 529 472 b 426 575 528 506 526 575 l 67 575 b 56 564 60 575 56 571 z "},".":{"ha":272,"x_min":0,"x_max":0,"o":"m 56 81 b 138 0 56 38 92 0 b 217 81 182 0 217 38 b 138 161 217 124 182 161 b 56 81 92 161 56 124 z "},"/":{"ha":683,"x_min":0,"x_max":0,"o":"m 57 -65 b 63 -78 54 -71 57 -76 b 115 -85 81 -82 97 -85 b 239 40 158 -85 200 -62 l 626 1056 b 608 1065 629 1061 625 1065 b 444 953 585 1064 482 1051 z "},":":{"ha":272,"x_min":0,"x_max":0,"o":"m 217 131 b 138 213 217 178 182 213 b 56 131 90 213 56 178 b 138 51 56 86 90 51 b 217 131 182 51 217 86 z m 217 643 b 138 724 217 688 182 724 b 56 643 90 724 56 688 b 138 561 56 599 90 561 b 217 643 182 561 217 599 z "},";":{"ha":335,"x_min":0,"x_max":0,"o":"m 69 -129 b 143 -99 79 -129 114 -128 b 263 194 192 -50 231 83 b 254 204 264 200 261 204 l 143 204 b 131 194 136 204 132 200 b 57 -117 114 97 85 -39 b 69 -129 54 -122 57 -128 z m 197 561 b 279 643 244 561 279 599 b 197 724 279 688 244 724 b 118 643 153 724 118 688 b 197 561 118 599 153 561 z "},"<":{"ha":874,"x_min":0,"x_max":0,"o":"m 781 804 l 121 478 b 126 310 36 436 31 361 l 679 11 b 724 -1 696 3 710 -1 b 811 50 771 -1 803 38 b 813 72 821 64 818 69 l 206 394 l 743 660 b 794 799 828 701 807 763 b 785 806 793 803 789 806 b 781 804 783 806 782 806 z "},"=":{"ha":963,"x_min":0,"x_max":0,"o":"m 67 442 b 56 422 60 442 56 436 b 153 333 56 390 69 333 l 896 333 b 907 353 903 333 907 339 b 810 442 907 385 893 442 z m 67 714 b 56 703 60 714 56 708 b 153 606 56 669 71 606 l 896 606 b 907 625 903 606 907 611 b 810 714 907 656 896 714 z "},">":{"ha":872,"x_min":0,"x_max":0,"o":"m 93 804 b 89 806 92 806 90 806 b 79 799 85 806 81 803 b 131 660 67 763 46 701 l 668 394 l 61 72 b 63 50 56 69 53 64 b 150 -1 71 38 103 -1 b 194 11 164 -1 178 3 l 747 310 b 753 478 843 361 838 436 z "},"?":{"ha":579,"x_min":0,"x_max":0,"o":"m 196 275 b 207 264 196 268 200 264 b 331 364 254 264 326 281 b 524 775 331 513 524 593 b 282 986 524 911 414 986 b 56 863 128 986 56 882 b 147 829 56 842 111 829 b 167 831 154 829 161 829 b 282 875 197 838 225 875 b 392 756 354 875 392 818 b 196 361 392 613 196 544 z m 274 160 b 193 81 229 160 193 125 b 274 0 193 36 229 0 b 354 81 318 0 354 36 b 274 160 354 125 318 160 z "},"@":{"ha":1133,"x_min":0,"x_max":0,"o":"m 747 365 l 808 728 b 613 803 814 761 707 803 b 288 538 444 803 325 661 b 469 235 232 354 339 235 b 653 307 560 235 631 293 b 660 310 656 308 657 310 b 667 304 663 310 664 307 b 826 228 693 276 746 228 b 1064 564 949 228 1064 346 b 610 1013 1064 808 882 1013 b 56 433 294 1013 56 742 b 471 0 56 161 240 0 b 801 117 614 0 750 64 b 813 165 831 146 825 165 b 801 161 808 165 806 164 b 557 94 728 115 643 94 b 182 450 353 94 182 232 b 635 904 182 690 339 904 b 938 556 856 904 938 739 b 813 346 938 382 868 346 b 747 365 776 346 747 361 z m 465 358 b 410 507 393 375 393 446 b 618 679 447 649 525 679 b 678 676 638 679 657 678 l 629 433 b 496 356 614 382 550 356 b 465 358 485 356 475 357 z "},"A":{"ha":953,"x_min":0,"x_max":0,"o":"m 78 0 b 214 67 138 0 190 0 l 293 294 l 643 294 l 721 67 b 875 0 743 0 818 0 b 882 10 882 0 885 4 l 536 963 b 521 972 533 968 528 972 b 389 879 453 972 413 944 l 71 10 b 78 0 68 4 71 0 z m 329 403 l 464 797 l 606 403 z "},"B":{"ha":786,"x_min":0,"x_max":0,"o":"m 97 875 l 97 10 b 107 0 97 4 101 0 l 372 0 b 717 274 540 0 717 83 b 524 521 717 396 639 486 b 524 525 518 521 518 524 b 679 738 642 561 679 658 b 392 974 679 896 538 974 l 222 974 b 97 875 164 974 97 943 z m 222 460 l 338 460 b 590 289 449 460 590 428 b 357 108 590 163 467 108 l 222 108 z m 222 567 l 222 865 l 401 865 b 551 721 486 865 551 811 b 347 567 551 608 447 567 z "},"C":{"ha":894,"x_min":0,"x_max":0,"o":"m 804 915 b 528 975 718 957 624 975 b 69 482 257 975 69 765 b 513 0 69 186 258 0 b 796 154 690 0 778 124 b 781 192 806 171 796 192 b 765 185 775 192 771 189 b 542 110 753 174 672 110 b 203 474 360 110 203 253 b 521 865 203 688 321 865 b 693 849 585 865 643 849 b 801 894 744 849 782 868 b 804 915 813 908 810 913 z "},"D":{"ha":944,"x_min":0,"x_max":0,"o":"m 83 11 b 94 0 83 4 88 0 l 392 0 b 875 489 658 0 875 224 b 392 972 875 781 685 972 l 208 972 b 83 874 150 972 83 940 z m 208 108 l 208 865 l 414 865 b 740 496 629 865 740 692 b 363 108 740 267 583 108 z "},"E":{"ha":704,"x_min":0,"x_max":0,"o":"m 94 0 l 610 0 b 621 11 617 0 621 6 b 529 110 617 63 601 110 l 210 110 l 210 482 l 515 482 b 606 579 585 482 601 529 b 594 590 606 585 601 590 l 210 590 l 210 865 l 531 865 b 621 961 589 865 621 926 b 610 972 621 972 617 972 l 210 972 b 83 874 150 972 83 940 l 83 11 b 94 0 83 4 88 0 z "},"F":{"ha":689,"x_min":0,"x_max":0,"o":"m 83 872 l 83 10 b 93 0 83 3 88 0 b 210 99 111 -1 210 32 l 210 481 l 515 481 b 606 578 571 481 601 528 b 594 589 606 583 601 589 l 210 589 l 210 864 l 531 864 b 619 954 586 864 619 914 b 610 972 619 967 617 972 l 210 972 b 83 872 150 972 83 939 z "},"G":{"ha":954,"x_min":0,"x_max":0,"o":"m 553 526 b 536 504 546 526 536 521 b 629 415 536 468 554 415 l 742 415 l 742 219 b 531 103 742 132 624 103 b 203 481 392 103 203 190 b 544 865 203 696 342 865 b 668 853 592 865 622 853 b 799 921 751 853 799 897 b 532 976 799 938 643 976 b 69 481 276 976 69 751 b 510 -10 69 181 235 -10 b 871 219 685 -10 871 72 l 871 415 b 783 526 871 479 826 526 z "},"H":{"ha":897,"x_min":0,"x_max":0,"o":"m 83 874 l 83 11 b 94 0 83 4 89 0 b 210 100 138 3 210 6 l 210 415 l 674 415 l 674 10 b 685 -1 674 3 678 -1 b 800 100 743 -1 800 -1 l 800 961 b 789 972 800 968 794 972 b 674 874 746 972 674 972 l 674 524 l 210 524 l 210 961 b 199 972 210 968 204 972 b 83 874 156 972 83 972 z "},"I":{"ha":321,"x_min":0,"x_max":0,"o":"m 113 0 b 224 99 169 0 224 1 l 224 961 b 213 972 224 972 221 972 b 97 872 186 972 97 972 l 97 11 b 113 0 97 1 104 0 z "},"J":{"ha":600,"x_min":0,"x_max":0,"o":"m 492 972 b 376 869 433 972 376 947 l 376 307 b 271 92 376 160 371 92 b 58 175 233 92 149 101 b 46 179 54 178 50 179 b 32 142 29 179 15 161 b 281 -11 100 61 171 -11 b 503 260 336 -11 503 7 l 503 961 b 492 972 503 968 499 972 z "},"K":{"ha":821,"x_min":0,"x_max":0,"o":"m 83 872 l 83 13 b 94 1 83 6 89 1 b 210 100 138 4 210 8 l 210 303 l 299 417 l 560 68 b 758 0 610 0 683 0 b 763 8 765 0 767 3 l 379 521 l 733 964 b 729 972 738 969 736 972 b 561 919 672 972 601 969 l 210 481 l 210 961 b 199 972 210 968 204 972 b 83 872 129 972 83 928 z "},"L":{"ha":714,"x_min":0,"x_max":0,"o":"m 94 0 l 633 0 b 644 11 640 0 644 6 b 560 108 644 40 638 108 l 210 108 l 210 961 b 199 972 210 968 206 972 b 83 875 140 972 83 943 l 83 11 b 94 0 83 4 88 0 z "},"M":{"ha":1026,"x_min":0,"x_max":0,"o":"m 181 974 b 83 889 146 974 83 968 l 83 13 b 101 0 83 6 83 0 b 192 86 121 0 192 7 l 192 658 l 465 10 b 485 0 469 1 476 0 b 549 75 494 1 518 10 l 817 649 l 817 101 b 924 0 817 8 894 0 b 943 11 942 0 943 3 l 943 961 b 932 972 943 968 939 972 b 824 908 881 972 851 965 l 506 240 l 196 960 b 181 974 193 965 189 974 z "},"N":{"ha":899,"x_min":0,"x_max":0,"o":"m 197 965 b 181 974 194 971 188 974 b 83 886 131 974 83 942 l 83 11 b 94 0 83 4 89 0 b 192 85 133 0 192 6 l 192 754 l 683 8 b 700 0 688 3 694 0 b 815 99 743 0 815 6 l 815 961 b 804 972 815 968 810 972 b 689 872 749 972 689 947 l 689 231 z "},"O":{"ha":1017,"x_min":0,"x_max":0,"o":"m 508 110 b 201 492 335 110 201 283 b 508 868 201 701 335 868 b 815 492 682 868 815 701 b 508 110 815 283 682 110 z m 508 978 b 69 492 267 978 69 760 b 508 0 69 224 267 0 b 947 492 750 0 947 224 b 508 978 947 760 750 978 z "},"P":{"ha":776,"x_min":0,"x_max":0,"o":"m 83 11 b 94 0 83 4 89 0 b 208 99 136 0 208 8 l 208 381 l 346 381 b 707 688 501 381 707 449 b 396 972 707 882 556 972 l 208 972 b 83 874 146 972 83 936 z m 208 865 l 396 865 b 582 679 479 865 582 807 b 358 488 582 565 501 488 l 208 488 z "},"Q":{"ha":1029,"x_min":0,"x_max":0,"o":"m 646 22 b 960 494 828 86 960 272 b 515 988 960 767 761 988 b 69 490 269 988 69 767 b 483 1 69 229 249 8 b 500 -8 490 1 497 -3 b 665 -111 546 -89 606 -111 b 839 -15 772 -111 822 -42 b 835 -3 843 -10 840 -3 b 829 -4 832 -3 831 -3 b 725 -31 807 -14 768 -31 b 639 10 708 -31 660 -28 b 646 22 636 15 639 19 z m 515 876 b 828 494 690 876 828 707 b 515 113 828 282 690 113 b 201 494 339 113 201 282 b 515 876 201 707 339 876 z "},"R":{"ha":810,"x_min":0,"x_max":0,"o":"m 83 11 b 94 0 83 4 89 0 b 208 101 140 0 208 21 l 208 383 l 296 383 b 435 301 361 383 404 356 l 550 96 b 747 0 593 19 653 0 b 753 10 754 0 756 4 l 575 340 b 501 403 561 367 539 388 b 503 411 496 406 496 410 b 706 689 604 439 706 526 b 394 972 706 886 553 972 l 208 972 b 83 886 146 972 83 943 z m 394 867 b 581 681 478 867 581 807 b 356 490 581 567 499 490 l 208 490 l 208 867 z "},"S":{"ha":760,"x_min":0,"x_max":0,"o":"m 78 43 b 361 -6 163 0 318 -6 b 690 264 554 -6 690 103 b 403 561 690 415 569 492 b 238 750 281 611 238 692 b 404 876 238 790 258 876 b 554 851 446 876 493 869 b 578 847 563 849 571 847 b 665 906 626 847 657 892 b 664 929 675 919 669 926 b 403 985 608 949 540 985 b 111 750 207 985 111 871 b 349 447 111 649 174 521 b 564 246 481 392 564 342 b 356 101 564 157 490 101 b 151 119 281 101 225 119 b 69 60 117 119 72 79 b 78 43 68 53 72 46 z "},"T":{"ha":842,"x_min":0,"x_max":0,"o":"m 56 875 b 67 864 56 868 60 864 l 358 864 l 358 11 b 369 0 358 4 364 0 b 486 99 408 0 486 11 l 486 864 l 697 864 b 786 961 764 864 786 917 b 775 972 786 968 782 972 l 149 972 b 56 875 82 972 56 925 z "},"U":{"ha":847,"x_min":0,"x_max":0,"o":"m 94 972 b 83 961 89 972 83 968 l 83 360 b 424 -11 83 53 310 -11 b 764 360 538 -11 764 53 l 764 961 b 753 972 764 968 758 972 b 653 875 701 972 653 940 l 653 382 b 424 103 653 140 515 103 b 211 382 332 103 211 140 l 211 872 b 94 972 211 956 142 972 z "},"V":{"ha":867,"x_min":0,"x_max":0,"o":"m 811 963 b 803 972 813 968 810 972 b 790 972 799 972 794 972 b 679 919 746 972 696 969 l 446 211 l 213 906 b 64 972 193 965 115 972 b 56 963 57 972 54 968 l 372 10 b 386 0 374 4 379 0 b 507 51 438 0 492 7 z "},"W":{"ha":1179,"x_min":0,"x_max":0,"o":"m 551 972 b 526 963 533 972 528 968 l 372 268 l 210 896 b 75 972 194 953 114 972 b 56 963 57 972 54 968 l 307 10 b 321 0 308 4 314 0 b 438 64 367 0 425 10 l 593 756 l 788 10 b 801 0 789 4 794 0 b 919 64 847 0 907 8 l 1124 963 b 1103 972 1125 968 1122 972 b 996 907 1069 972 1008 961 l 853 268 l 690 896 b 551 972 675 953 590 972 z "},"X":{"ha":874,"x_min":0,"x_max":0,"o":"m 811 0 b 817 8 818 0 819 3 l 507 501 l 806 964 b 800 972 808 969 807 972 b 783 972 794 972 789 972 b 657 931 739 972 683 969 l 443 603 l 232 924 b 71 972 201 971 122 972 b 63 972 68 972 65 972 b 57 964 56 972 54 969 l 367 483 l 68 8 b 74 0 65 3 67 0 b 222 49 124 0 192 0 l 432 382 l 635 58 b 811 0 669 3 754 0 z "},"Y":{"ha":839,"x_min":0,"x_max":0,"o":"m 43 964 l 356 478 l 356 11 b 367 0 356 4 361 0 b 483 99 410 3 483 7 l 483 478 l 796 964 b 790 972 799 969 797 972 b 774 972 785 972 779 972 b 647 931 729 972 674 969 l 431 599 l 218 925 b 57 972 188 971 108 972 b 49 972 54 972 51 972 b 43 964 42 972 40 969 z "},"Z":{"ha":901,"x_min":0,"x_max":0,"o":"m 83 11 b 94 0 83 6 88 0 l 732 0 b 818 97 796 0 818 49 b 807 108 818 104 814 108 l 247 108 l 746 807 b 804 961 776 849 804 900 b 793 972 804 967 800 972 l 125 972 b 115 961 118 972 115 967 b 200 864 115 917 135 864 l 629 864 l 138 175 b 83 11 113 139 83 88 z "},"[":{"ha":353,"x_min":0,"x_max":0,"o":"m 297 918 b 182 1014 297 951 282 1014 b 56 910 151 1014 56 1008 l 56 -114 b 182 -218 56 -189 113 -218 b 297 -124 279 -218 296 -158 b 286 -112 297 -118 293 -112 l 182 -112 l 182 907 l 286 907 b 297 918 293 907 297 913 z "},"\\":{"ha":682,"x_min":0,"x_max":0,"o":"m 57 1128 l 444 113 b 590 -3 483 10 556 -3 b 607 -1 599 -3 604 -1 b 625 10 625 -1 628 4 l 238 1025 b 64 1138 203 1117 156 1138 b 57 1128 57 1138 54 1133 z "},"]":{"ha":353,"x_min":0,"x_max":0,"o":"m 56 918 b 67 907 56 913 60 907 l 171 907 l 171 -112 l 67 -112 b 56 -124 60 -112 56 -118 b 181 -218 58 -204 106 -218 b 297 -114 211 -218 297 -212 l 297 910 b 171 1014 297 992 242 1014 b 56 918 57 1014 56 951 z "},"^":{"ha":922,"x_min":0,"x_max":0,"o":"m 71 311 b 107 307 78 310 90 307 b 201 364 138 307 178 317 l 472 899 l 790 288 b 797 282 792 283 794 282 b 803 283 799 282 801 282 b 851 422 838 304 894 340 l 560 976 b 472 1047 535 1025 503 1047 b 392 983 442 1047 413 1025 l 57 326 b 71 311 54 321 57 315 z "},"_":{"ha":907,"x_min":0,"x_max":0,"o":"m 39 108 b 28 97 32 108 28 103 b 125 0 28 61 31 0 l 868 0 b 879 11 875 0 879 6 b 782 108 878 39 875 108 z "},"`":{"ha":347,"x_min":0,"x_max":0,"o":"m 43 1017 b 197 839 93 944 154 858 b 232 832 208 835 219 832 b 293 844 258 832 283 840 b 303 860 306 850 307 854 b 172 1061 263 908 208 996 b 161 1068 171 1065 165 1068 b 157 1067 160 1068 158 1068 l 47 1029 b 43 1017 42 1026 39 1022 z "},"a":{"ha":715,"x_min":0,"x_max":0,"o":"m 492 457 b 344 494 444 481 393 494 b 69 233 163 494 69 378 b 307 -6 69 51 214 -6 b 496 69 368 -6 433 18 b 501 72 499 71 500 72 b 504 65 503 72 504 71 b 621 0 504 0 569 0 b 632 11 628 0 632 4 l 632 461 b 371 751 632 692 489 751 b 121 613 304 751 182 732 b 139 582 111 594 122 582 b 153 585 143 582 147 582 b 340 640 243 625 276 640 b 503 464 440 640 503 596 b 497 456 503 458 500 456 b 492 457 496 456 493 456 z m 197 244 b 361 382 197 339 281 382 b 504 346 396 382 457 374 l 504 229 b 325 106 504 161 400 106 b 197 244 235 106 197 182 z "},"b":{"ha":804,"x_min":0,"x_max":0,"o":"m 83 11 b 94 0 83 4 88 0 b 211 85 151 0 211 24 b 214 92 211 89 213 92 b 219 89 215 92 218 90 b 424 -7 264 44 326 -7 b 735 364 592 -7 735 144 b 415 742 735 572 610 742 b 221 668 344 742 271 718 b 215 665 219 667 217 665 b 213 671 214 665 213 667 l 213 961 b 201 972 213 968 208 972 b 83 874 143 972 83 943 z m 213 446 b 408 635 213 536 297 635 b 610 358 531 635 610 515 b 396 100 610 189 507 100 b 213 279 286 100 213 189 z "},"c":{"ha":744,"x_min":0,"x_max":0,"o":"m 606 578 b 674 624 633 578 663 593 b 669 642 676 629 674 638 b 417 749 606 708 513 749 b 69 357 211 749 69 560 b 411 -8 69 119 222 -8 b 658 89 554 -8 626 53 b 642 146 681 114 668 146 b 628 143 638 146 632 144 b 433 104 590 131 510 104 b 199 357 272 104 199 238 b 422 633 199 504 293 633 b 606 578 508 633 553 578 z "},"d":{"ha":807,"x_min":0,"x_max":0,"o":"m 69 363 b 381 0 69 133 217 0 b 589 93 450 0 524 28 b 594 96 592 96 593 96 b 596 90 596 96 596 94 b 713 0 596 22 649 0 b 724 11 719 0 724 4 l 724 961 b 713 972 724 968 718 972 b 594 874 650 972 594 936 l 594 671 b 592 665 594 667 593 665 b 586 668 590 665 588 667 b 389 742 531 724 451 742 b 69 363 186 742 69 581 z m 396 635 b 594 426 500 635 594 543 l 594 286 b 408 107 594 201 533 107 b 196 365 276 107 196 221 b 396 635 196 499 268 635 z "},"e":{"ha":797,"x_min":0,"x_max":0,"o":"m 722 433 b 417 749 708 599 600 749 b 69 353 183 749 69 547 b 396 -11 69 156 190 -11 b 672 139 553 -11 643 96 b 654 176 683 154 669 176 b 642 171 650 176 646 174 b 443 100 615 147 549 100 b 217 279 322 100 246 175 l 604 322 b 722 433 664 326 728 364 z m 199 390 b 396 638 199 518 276 638 b 586 432 510 638 586 538 z "},"f":{"ha":553,"x_min":0,"x_max":0,"o":"m 42 722 b 163 629 42 658 90 629 l 164 11 b 175 0 164 4 169 0 b 289 106 217 3 289 7 l 288 629 l 497 629 b 507 644 504 629 507 631 b 418 738 507 661 503 738 l 288 738 b 383 899 288 850 311 899 b 494 876 413 899 449 892 b 506 875 499 875 503 875 b 514 914 529 875 529 907 b 307 972 454 942 365 972 b 163 738 182 972 163 831 l 51 738 b 42 722 44 738 42 738 z "},"g":{"ha":810,"x_min":0,"x_max":0,"o":"m 69 372 b 400 -3 69 169 188 -3 b 593 71 475 -3 540 24 b 599 74 596 72 597 74 b 601 67 600 74 601 71 l 601 36 b 392 -181 601 -87 508 -181 b 186 -118 308 -181 215 -133 b 176 -115 183 -117 179 -115 b 167 -140 167 -115 160 -125 b 403 -293 188 -190 251 -293 b 726 49 597 -293 726 -140 l 726 725 b 715 738 726 738 721 738 b 599 661 653 738 599 710 b 594 654 599 657 597 654 b 590 657 593 654 592 656 b 385 738 532 710 461 738 b 69 372 186 738 69 558 z m 199 376 b 408 629 199 511 282 629 b 601 444 517 629 601 542 l 601 297 b 407 106 601 192 511 106 b 199 376 276 106 199 246 z "},"h":{"ha":731,"x_min":0,"x_max":0,"o":"m 83 11 b 94 1 83 4 89 1 b 211 106 136 4 211 8 l 211 469 b 372 629 211 553 289 629 b 521 476 456 629 521 560 l 521 106 b 636 1 521 8 594 4 b 647 11 642 1 647 4 l 647 475 b 388 747 647 725 454 747 b 219 665 296 747 253 708 b 214 663 218 664 215 663 b 211 668 213 663 211 664 l 211 960 b 200 972 211 972 206 972 b 83 883 136 972 83 943 z "},"i":{"ha":342,"x_min":0,"x_max":0,"o":"m 117 1 b 233 107 182 1 233 36 l 233 728 b 224 738 233 735 229 738 b 107 631 165 738 107 700 l 107 11 b 117 1 107 4 111 1 z m 165 833 b 244 915 210 833 244 871 b 165 997 244 960 210 997 b 83 915 121 997 83 960 b 165 833 83 871 121 833 z "},"j":{"ha":365,"x_min":0,"x_max":0,"o":"m 261 738 b 144 631 197 738 144 696 l 147 0 b 28 -131 147 -79 113 -131 b -65 -115 1 -131 -29 -125 b -72 -114 -68 -115 -69 -114 b -82 -174 -97 -114 -107 -158 b 94 -233 -25 -208 35 -233 b 275 -1 204 -233 275 -147 l 272 726 b 261 738 272 733 267 738 z m 121 906 b 203 824 121 861 157 824 b 282 906 247 824 282 861 b 203 988 282 950 247 988 b 121 906 157 988 121 950 z "},"k":{"ha":729,"x_min":0,"x_max":0,"o":"m 83 874 l 83 13 b 94 1 83 6 89 1 b 210 104 136 4 210 7 l 210 260 l 285 333 l 476 60 b 658 0 515 4 597 0 b 664 8 665 0 668 3 l 375 422 l 671 731 b 667 738 675 735 674 738 b 625 738 653 738 639 738 b 488 690 574 738 529 733 l 210 410 l 211 961 b 200 972 211 968 207 972 b 83 874 143 972 83 943 z "},"l":{"ha":394,"x_min":0,"x_max":0,"o":"m 199 972 b 83 874 136 972 83 936 l 83 236 b 311 0 83 81 138 0 b 324 46 338 0 350 33 b 210 236 243 82 210 136 l 210 961 b 199 972 210 968 204 972 z "},"m":{"ha":1121,"x_min":0,"x_max":0,"o":"m 83 649 l 83 8 b 92 0 83 3 86 0 b 211 101 136 0 211 3 l 211 472 b 358 631 211 549 271 631 b 497 436 456 631 497 529 l 497 104 b 615 1 497 4 572 1 b 624 10 621 1 624 4 l 624 472 b 778 631 624 549 689 631 b 910 436 875 631 910 529 l 910 104 b 1029 1 910 4 986 1 b 1038 10 1035 1 1038 4 l 1038 433 b 799 744 1038 678 913 744 b 592 638 711 744 643 711 b 586 633 590 635 588 633 b 581 638 583 633 582 635 b 385 744 539 711 454 744 b 218 665 315 744 250 713 b 214 663 217 663 215 663 b 211 668 213 663 211 664 l 211 725 b 200 738 211 735 206 738 b 83 649 140 738 83 706 z "},"n":{"ha":738,"x_min":0,"x_max":0,"o":"m 83 8 b 92 1 83 3 86 1 b 211 108 135 4 211 7 l 211 442 b 374 632 211 543 278 632 b 526 439 469 632 526 543 l 526 108 b 646 1 526 7 601 4 b 654 8 651 1 654 3 l 654 440 b 400 740 654 717 464 740 b 219 661 331 740 271 713 b 214 658 218 660 215 658 b 211 664 213 658 211 660 l 211 725 b 200 738 211 738 206 738 b 83 649 136 738 83 708 z "},"o":{"ha":828,"x_min":0,"x_max":0,"o":"m 415 743 b 69 371 224 743 69 576 b 415 -6 69 167 224 -6 b 758 371 606 -6 758 167 b 415 743 758 576 606 743 z m 415 103 b 197 371 294 103 197 226 b 415 635 197 515 294 635 b 632 371 533 635 632 515 b 415 103 632 226 533 103 z "},"p":{"ha":808,"x_min":0,"x_max":0,"o":"m 83 -287 b 94 -300 83 -296 89 -300 b 210 -194 138 -297 210 -292 l 210 71 b 214 78 210 75 211 78 b 218 75 215 78 217 76 b 419 -1 271 25 338 -1 b 739 361 592 -1 739 115 b 424 743 739 551 638 743 b 219 660 344 743 279 715 b 215 657 218 658 217 657 b 211 664 213 657 211 660 l 211 725 b 200 738 211 738 206 738 b 83 649 136 738 83 708 z m 210 447 b 399 633 210 538 293 633 b 613 368 518 633 613 514 b 408 107 613 247 549 107 b 210 299 306 107 210 178 z "},"q":{"ha":810,"x_min":0,"x_max":0,"o":"m 69 365 b 383 1 69 168 215 1 b 590 79 451 1 536 29 b 596 82 593 81 594 82 b 599 75 597 82 599 79 l 599 -181 b 715 -299 599 -243 651 -299 b 726 -287 721 -299 726 -294 l 726 725 b 715 738 726 738 721 738 b 600 668 653 738 611 715 b 597 663 599 664 599 663 b 592 665 596 663 594 663 b 386 742 521 736 422 742 b 69 365 165 742 69 524 z m 414 633 b 599 450 515 633 599 550 l 599 301 b 400 111 599 181 493 111 b 196 371 278 111 196 235 b 414 633 196 518 293 633 z "},"r":{"ha":531,"x_min":0,"x_max":0,"o":"m 83 649 l 83 18 b 94 7 83 11 89 7 b 208 113 136 10 208 14 l 208 479 b 378 621 208 569 275 621 b 475 714 458 621 475 694 b 410 742 475 726 458 738 b 383 743 400 743 392 743 b 218 664 313 743 261 717 b 214 661 217 661 215 661 b 211 667 213 661 211 663 l 211 725 b 200 738 211 738 206 738 b 83 649 136 738 83 708 z "},"s":{"ha":613,"x_min":0,"x_max":0,"o":"m 69 78 b 79 61 68 71 74 64 b 318 -7 149 18 254 -7 b 543 210 451 -7 543 97 b 332 454 543 325 444 385 b 222 574 265 494 222 533 b 325 651 222 615 267 651 b 461 618 381 651 415 618 b 528 671 496 618 519 638 b 519 686 529 676 526 682 b 303 753 424 749 331 753 b 93 561 186 753 93 679 b 239 357 93 479 138 422 b 414 200 315 307 414 275 b 288 100 414 149 363 100 b 158 140 228 100 196 129 b 133 144 149 143 140 144 b 69 78 94 144 75 113 z "},"t":{"ha":663,"x_min":0,"x_max":0,"o":"m 69 639 b 79 628 69 633 72 628 l 193 628 l 193 222 b 367 0 193 200 193 0 b 571 118 475 0 542 74 b 565 161 585 139 579 161 b 550 154 561 161 556 158 b 429 107 518 129 479 107 b 319 222 326 107 319 196 l 319 628 l 451 628 b 540 726 510 628 540 676 b 529 738 540 733 536 738 l 319 736 l 319 875 b 308 886 319 882 315 886 b 193 782 247 886 193 854 l 193 738 l 160 738 b 69 639 75 738 69 663 z "},"u":{"ha":732,"x_min":0,"x_max":0,"o":"m 649 725 b 638 736 649 731 643 736 b 522 629 567 736 522 685 l 522 313 b 354 111 522 174 440 111 b 210 301 246 111 210 211 l 210 629 b 94 736 210 685 165 736 b 83 725 89 736 83 731 l 83 288 b 318 3 83 118 178 3 b 517 86 411 3 474 36 b 521 89 518 88 519 89 b 525 82 522 89 524 86 b 638 0 531 29 578 0 b 649 13 643 0 649 0 z "},"v":{"ha":726,"x_min":0,"x_max":0,"o":"m 697 728 b 690 738 700 733 697 738 b 560 669 636 738 585 724 l 378 176 l 188 674 b 36 738 165 729 88 738 b 29 728 29 738 26 733 l 314 10 b 329 0 317 4 324 0 b 463 88 400 0 438 15 z "},"w":{"ha":1133,"x_min":0,"x_max":0,"o":"m 503 738 b 489 728 496 738 490 733 l 335 189 l 183 667 b 36 738 164 728 92 738 b 28 728 29 738 26 733 l 260 10 b 286 0 261 4 267 0 b 418 83 353 0 399 8 l 538 551 l 710 10 b 738 0 711 4 717 0 b 868 83 804 0 844 13 l 1092 728 b 1069 738 1093 733 1090 738 b 958 669 1032 738 978 724 l 785 189 l 624 668 b 503 738 604 724 556 738 z "},"x":{"ha":728,"x_min":0,"x_max":0,"o":"m 699 8 l 433 379 l 683 729 b 678 738 688 735 685 738 b 664 738 674 738 668 738 b 535 694 593 738 565 736 l 372 467 l 210 694 b 35 738 179 738 133 738 b 29 729 28 738 25 735 l 294 357 l 44 8 b 50 0 40 3 43 0 b 199 50 103 0 165 1 l 356 271 l 514 50 b 664 0 546 4 611 0 b 693 0 674 0 685 0 b 699 8 700 0 703 3 z "},"y":{"ha":753,"x_min":0,"x_max":0,"o":"m 388 -131 l 718 728 b 700 738 721 733 707 738 b 581 671 649 735 601 724 l 379 154 l 181 667 b 29 738 156 731 88 738 b 22 728 22 738 19 733 l 314 -17 l 278 -115 b 154 -199 253 -181 204 -199 b 64 -185 122 -199 89 -190 b 57 -183 61 -185 60 -183 b 43 -229 32 -183 22 -221 b 238 -287 110 -257 182 -287 b 388 -131 299 -287 342 -249 z "},"z":{"ha":760,"x_min":0,"x_max":0,"o":"m 56 11 b 67 0 56 4 60 0 l 694 0 b 704 11 701 0 704 6 b 614 108 701 47 699 108 l 268 108 l 656 622 b 704 726 685 663 704 688 b 693 738 704 733 700 738 l 86 738 b 78 714 79 738 76 732 b 167 628 79 690 83 628 l 507 628 l 106 111 b 56 11 79 75 56 44 z "},"{":{"ha":515,"x_min":0,"x_max":0,"o":"m 151 19 b 329 -153 151 -72 221 -153 b 458 -54 439 -153 456 -74 b 447 -39 460 -44 456 -39 b 440 -40 444 -39 443 -40 b 379 -49 428 -43 404 -49 b 281 40 332 -49 281 -32 b 290 350 281 113 328 265 b 238 406 278 379 258 394 b 238 415 232 408 232 413 b 289 471 258 426 276 443 b 281 782 328 557 281 656 b 381 871 281 854 335 871 b 440 863 407 871 431 865 b 451 861 444 861 449 861 b 458 876 458 861 460 865 b 331 975 456 897 436 975 b 151 803 221 975 151 897 b 147 483 151 672 197 543 b 56 426 115 446 56 449 l 56 403 b 151 331 56 375 119 399 b 151 19 185 257 151 140 z "},"|":{"ha":261,"x_min":0,"x_max":0,"o":"m 89 -247 b 178 -150 114 -247 178 -233 l 178 1253 b 167 1264 178 1260 172 1264 b 69 1167 131 1264 69 1261 l 69 -236 b 89 -247 69 -243 75 -247 z "},"}":{"ha":515,"x_min":0,"x_max":0,"o":"m 364 19 b 364 331 364 140 331 257 b 460 403 396 399 460 375 l 460 426 b 368 483 460 449 400 446 b 364 803 318 543 364 672 b 185 975 364 897 294 975 b 57 876 79 975 60 897 b 64 861 56 865 57 861 b 75 863 67 861 71 861 b 135 871 85 865 108 871 b 235 782 181 871 235 854 b 226 471 235 656 188 557 b 278 415 239 443 257 426 b 278 406 283 413 283 408 b 225 350 257 394 238 379 b 235 40 188 265 235 113 b 136 -49 235 -32 183 -49 b 75 -40 111 -49 88 -43 b 68 -39 72 -40 71 -39 b 57 -54 60 -39 56 -44 b 186 -153 60 -74 76 -153 b 364 19 294 -153 364 -72 z "},"~":{"ha":892,"x_min":0,"x_max":0,"o":"m 58 389 b 115 375 68 385 92 375 b 174 413 139 375 161 383 b 233 456 181 428 199 456 b 260 451 242 456 250 454 b 644 317 301 438 571 340 b 715 304 669 308 693 304 b 864 465 789 304 849 351 b 856 479 865 471 861 476 b 779 499 836 488 807 499 b 722 468 757 499 735 492 b 669 422 708 442 700 422 b 629 431 660 422 646 425 b 210 579 600 440 256 567 b 183 583 200 582 192 583 b 42 407 113 583 61 506 b 58 389 40 401 44 396 z "},"¢":{"ha":708,"x_min":0,"x_max":0,"o":"m 326 115 l 326 11 b 336 1 326 4 331 0 b 454 131 421 13 454 43 b 610 232 511 146 564 185 b 597 282 631 254 615 282 b 588 279 594 282 590 281 b 411 218 532 244 471 218 b 189 468 281 218 189 338 b 403 724 189 575 258 724 b 536 679 449 724 486 708 b 579 667 551 671 567 667 b 647 704 615 667 639 694 b 642 736 656 717 654 722 b 454 829 604 779 540 829 l 454 986 b 443 997 454 993 449 997 b 326 826 319 989 326 933 b 56 458 168 797 56 646 b 326 115 56 229 229 140 z "},"£":{"ha":750,"x_min":0,"x_max":0,"o":"m 288 108 b 283 117 281 108 279 111 b 354 304 322 163 354 211 b 342 449 354 357 344 424 l 526 449 b 535 468 533 449 538 453 b 446 558 532 486 514 558 l 332 558 b 475 856 306 764 342 856 b 632 811 540 856 592 833 b 651 806 639 807 644 806 b 665 844 668 806 681 821 b 440 963 640 885 575 963 b 204 557 222 963 178 764 l 67 557 b 56 546 60 557 56 553 b 147 444 56 494 78 444 l 214 444 b 228 319 218 408 228 368 b 103 108 228 211 178 160 b 68 11 53 75 61 39 b 82 1 69 6 75 1 l 699 1 b 708 21 706 1 710 7 b 613 108 707 39 693 108 z "},"¥":{"ha":788,"x_min":0,"x_max":0,"o":"m 42 436 b 53 425 42 431 46 425 l 317 425 l 317 344 l 139 344 b 42 256 56 344 43 275 b 53 236 42 242 46 236 l 315 236 l 315 11 b 325 1 315 4 319 0 b 443 106 357 6 443 21 l 443 236 l 635 236 b 732 325 697 236 732 263 b 721 344 732 339 728 344 l 443 344 l 443 425 l 635 425 b 732 511 714 425 732 476 b 721 533 732 528 728 533 l 508 533 l 725 963 b 719 972 728 968 726 972 b 565 899 653 971 597 956 l 379 561 l 221 872 b 72 969 188 935 135 967 b 67 960 65 969 64 967 l 272 533 l 139 533 b 42 436 44 533 42 472 z "},"À":{"ha":953,"x_min":0,"x_max":0,"o":"m 78 0 b 210 67 138 0 186 0 l 288 294 l 646 294 l 724 67 b 875 0 746 0 818 0 b 882 10 882 0 885 4 l 536 963 b 521 972 533 969 528 972 b 389 879 453 972 413 944 l 71 10 b 78 0 68 4 71 0 z m 325 403 l 467 803 l 608 403 z m 275 1250 b 429 1072 325 1178 353 1094 b 469 1067 443 1068 457 1067 b 525 1078 492 1067 511 1072 b 535 1093 538 1083 539 1088 b 404 1294 494 1142 440 1229 b 393 1301 403 1299 397 1301 b 389 1300 392 1301 390 1301 l 279 1263 b 275 1250 274 1260 271 1256 z "},"Á":{"ha":953,"x_min":0,"x_max":0,"o":"m 78 0 b 210 67 138 0 186 0 l 288 294 l 646 294 l 724 67 b 875 0 746 0 818 0 b 882 10 882 0 885 4 l 536 963 b 521 972 533 969 528 972 b 389 879 453 972 413 944 l 71 10 b 78 0 68 4 71 0 z m 325 403 l 467 803 l 608 403 z m 411 1078 b 472 1065 421 1074 446 1065 b 507 1072 483 1065 496 1068 b 661 1250 549 1092 611 1178 b 657 1263 665 1256 663 1260 l 547 1300 b 543 1301 546 1301 544 1301 b 532 1294 539 1301 533 1299 b 401 1093 496 1229 442 1142 b 411 1078 397 1088 399 1083 z "},"Â":{"ha":953,"x_min":0,"x_max":0,"o":"m 315 1092 b 374 1081 340 1085 358 1081 b 425 1113 393 1081 407 1089 l 486 1189 l 544 1113 b 603 1083 561 1090 571 1083 b 663 1088 617 1083 636 1085 b 667 1097 668 1088 671 1092 l 557 1243 b 485 1271 543 1263 514 1271 b 414 1247 456 1271 428 1263 l 311 1101 b 315 1092 307 1096 310 1093 z m 78 0 b 210 67 138 0 186 0 l 288 294 l 646 294 l 724 67 b 875 0 746 0 818 0 b 882 10 882 0 885 4 l 536 963 b 521 972 533 969 528 972 b 389 879 453 972 413 944 l 71 10 b 78 0 68 4 71 0 z m 325 403 l 467 803 l 608 403 z "},"Ã":{"ha":953,"x_min":0,"x_max":0,"o":"m 78 0 b 210 67 138 0 186 0 l 288 294 l 646 294 l 724 67 b 875 0 746 0 818 0 b 882 10 882 0 885 4 l 536 963 b 521 972 533 969 528 972 b 389 879 453 972 413 944 l 71 10 b 78 0 68 4 71 0 z m 325 403 l 467 803 l 608 403 z m 314 1086 b 349 1078 322 1082 335 1078 b 385 1088 360 1078 372 1081 b 425 1106 389 1099 404 1106 b 443 1104 431 1106 436 1106 b 565 1067 482 1097 524 1067 b 674 1168 582 1067 657 1067 b 654 1185 675 1174 671 1179 b 618 1190 649 1186 633 1190 b 582 1172 604 1190 589 1186 b 558 1161 578 1164 569 1161 b 503 1174 542 1161 521 1168 b 383 1207 489 1178 422 1207 b 294 1104 335 1207 306 1165 b 314 1086 293 1099 297 1093 z "},"Ä":{"ha":953,"x_min":0,"x_max":0,"o":"m 378 1075 b 442 1138 415 1075 442 1104 b 378 1200 442 1171 415 1200 b 317 1138 343 1200 317 1171 b 378 1075 317 1104 343 1075 z m 558 1075 b 622 1138 596 1075 622 1104 b 558 1200 622 1171 596 1200 b 497 1138 524 1200 497 1171 b 558 1075 497 1104 524 1075 z m 78 0 b 210 67 138 0 186 0 l 288 294 l 646 294 l 724 67 b 875 0 746 0 818 0 b 882 10 882 0 885 4 l 536 963 b 521 972 533 969 528 972 b 389 879 453 972 413 944 l 71 10 b 78 0 68 4 71 0 z m 325 403 l 467 803 l 608 403 z "},"Å":{"ha":953,"x_min":0,"x_max":0,"o":"m 471 1056 b 610 1182 547 1056 610 1113 b 471 1310 610 1253 547 1310 b 332 1182 394 1310 332 1253 b 471 1056 332 1113 394 1056 z m 472 1264 b 551 1182 515 1264 551 1228 b 472 1100 551 1138 515 1100 b 392 1182 428 1100 392 1138 b 472 1264 392 1228 428 1264 z m 78 0 b 210 67 138 0 186 0 l 288 294 l 646 294 l 724 67 b 875 0 746 0 818 0 b 882 10 882 0 885 4 l 536 963 b 521 972 533 969 528 972 b 389 879 453 972 413 944 l 71 10 b 78 0 68 4 71 0 z m 325 403 l 467 803 l 608 403 z "},"Æ":{"ha":1292,"x_min":0,"x_max":0,"o":"m 43 10 b 49 0 40 4 42 0 b 201 60 103 0 174 4 l 315 292 l 674 292 l 717 64 b 832 1 726 11 790 1 l 1215 1 b 1221 18 1222 1 1225 6 b 1113 110 1215 39 1185 110 l 847 110 l 776 458 l 1033 458 b 1106 549 1106 458 1107 531 b 1092 568 1104 564 1099 568 l 754 568 l 692 864 l 996 864 b 1068 950 1074 864 1071 926 b 1054 972 1065 968 1061 972 l 644 972 b 499 886 590 972 528 942 z m 654 400 l 369 400 l 576 800 z "},"Ç":{"ha":863,"x_min":0,"x_max":0,"o":"m 411 -4 l 367 -103 b 482 -194 361 -126 515 -125 b 440 -219 472 -214 457 -219 b 369 -208 417 -219 389 -208 b 364 -208 368 -208 365 -208 b 299 -246 322 -215 307 -236 b 294 -265 288 -257 289 -262 b 439 -303 332 -283 388 -303 b 571 -210 496 -303 550 -279 b 494 -69 600 -114 525 -79 b 488 -57 488 -67 485 -62 l 507 -7 b 522 4 510 -1 515 3 b 761 157 660 22 738 124 b 747 188 772 172 760 188 b 738 185 743 188 740 188 b 514 100 729 179 647 100 b 181 488 307 100 181 297 b 493 868 181 681 293 868 b 665 849 557 868 615 849 b 774 894 717 849 754 868 b 776 915 785 908 782 913 b 500 975 692 957 596 975 b 53 482 231 975 53 744 b 404 8 53 249 181 56 b 411 -4 411 7 414 1 z "},"È":{"ha":704,"x_min":0,"x_max":0,"o":"m 83 11 b 94 0 83 4 88 0 l 610 0 b 621 11 617 0 621 6 b 529 110 617 63 601 110 l 210 110 l 210 482 l 515 482 b 606 579 585 482 601 529 b 594 590 606 585 601 590 l 210 590 l 210 865 l 531 865 b 621 963 597 865 617 913 b 610 974 621 968 617 974 l 210 974 b 83 874 150 974 83 940 z m 222 1250 b 376 1072 272 1178 335 1092 b 411 1065 388 1068 400 1065 b 472 1078 438 1065 463 1074 b 482 1093 485 1083 486 1088 b 351 1294 442 1142 388 1229 b 340 1301 350 1299 344 1301 b 336 1300 339 1301 338 1301 l 226 1263 b 222 1250 221 1260 218 1256 z "},"É":{"ha":704,"x_min":0,"x_max":0,"o":"m 83 11 b 94 0 83 4 88 0 l 610 0 b 621 11 617 0 621 6 b 529 110 617 63 601 110 l 210 110 l 210 482 l 515 482 b 606 579 585 482 601 529 b 594 590 606 585 601 590 l 210 590 l 210 865 l 531 865 b 621 963 597 865 617 913 b 610 974 621 968 617 974 l 210 974 b 83 874 150 974 83 940 z m 232 1078 b 290 1065 242 1074 265 1065 b 328 1072 303 1065 315 1068 b 482 1250 382 1093 432 1178 b 478 1263 486 1256 483 1260 l 368 1300 b 364 1301 367 1301 365 1301 b 353 1294 360 1301 354 1299 b 222 1093 317 1229 263 1142 b 232 1078 218 1088 219 1083 z "},"Ê":{"ha":676,"x_min":0,"x_max":0,"o":"m 56 874 l 56 11 b 67 0 56 4 60 0 l 582 0 b 593 11 589 0 593 6 b 501 110 589 63 574 110 l 182 110 l 182 482 l 488 482 b 578 579 557 482 574 529 b 567 590 578 585 574 590 l 182 590 l 182 865 l 503 865 b 593 963 569 865 589 913 b 582 974 593 968 589 974 l 182 974 b 56 874 122 974 56 940 z m 144 1090 b 203 1079 169 1083 188 1079 b 254 1111 222 1079 236 1088 l 315 1188 l 374 1111 b 432 1082 390 1089 400 1082 b 492 1086 446 1082 465 1083 b 496 1096 497 1086 500 1090 l 386 1242 b 314 1269 372 1261 343 1269 b 243 1246 285 1269 257 1261 l 140 1100 b 144 1090 136 1094 139 1092 z "},"Ë":{"ha":703,"x_min":0,"x_max":0,"o":"m 82 11 b 93 0 82 4 86 0 l 608 0 b 619 11 615 0 619 6 b 528 110 615 63 600 110 l 208 110 l 208 482 l 514 482 b 604 579 583 482 600 529 b 593 590 604 585 600 590 l 208 590 l 208 865 l 529 865 b 619 963 596 865 615 913 b 608 974 619 968 615 974 l 208 974 b 82 874 149 974 82 940 z m 376 1132 b 438 1069 376 1099 403 1069 b 501 1132 475 1069 501 1099 b 438 1194 501 1165 475 1194 b 376 1132 403 1194 376 1165 z m 190 1132 b 251 1069 190 1099 217 1069 b 315 1132 289 1069 315 1099 b 251 1194 315 1165 289 1194 b 190 1132 217 1194 190 1165 z "},"Ì":{"ha":347,"x_min":0,"x_max":0,"o":"m 122 0 b 233 99 179 0 233 1 l 233 974 b 222 985 233 981 228 985 b 107 885 181 982 107 979 l 107 11 b 122 0 107 1 114 0 z m 29 1250 b 183 1072 79 1178 142 1092 b 218 1065 194 1068 207 1065 b 279 1078 244 1065 269 1074 b 289 1093 292 1083 293 1088 b 158 1294 249 1142 194 1229 b 147 1301 157 1299 151 1301 b 143 1300 146 1301 144 1301 l 33 1263 b 29 1250 28 1260 25 1256 z "},"Í":{"ha":319,"x_min":0,"x_max":0,"o":"m 111 0 b 222 99 168 0 222 1 l 222 974 b 211 985 222 981 217 985 b 96 885 169 982 96 979 l 96 11 b 111 0 96 1 103 0 z m 290 1250 b 286 1263 294 1256 292 1260 l 176 1300 b 172 1301 175 1301 174 1301 b 161 1294 168 1301 163 1299 b 31 1093 125 1229 71 1142 b 40 1078 26 1088 28 1083 b 101 1065 50 1074 75 1065 b 136 1072 113 1065 125 1068 b 290 1250 178 1092 240 1178 z "},"Î":{"ha":372,"x_min":0,"x_max":0,"o":"m 132 0 b 243 99 189 0 243 1 l 243 974 b 232 985 243 981 238 985 b 117 885 190 982 117 979 l 117 11 b 132 0 117 1 124 0 z m 6 1056 b 64 1044 31 1049 49 1044 b 115 1076 83 1044 97 1053 l 176 1153 l 235 1076 b 293 1047 251 1054 261 1047 b 353 1051 307 1047 326 1049 b 357 1061 358 1051 361 1056 l 247 1207 b 175 1235 233 1226 204 1235 b 104 1211 146 1235 118 1226 l 1 1065 b 6 1056 -3 1060 0 1057 z "},"Ï":{"ha":363,"x_min":0,"x_max":0,"o":"m 89 1069 b 153 1132 125 1069 153 1099 b 89 1194 153 1165 125 1194 b 28 1132 56 1194 28 1165 b 89 1069 28 1099 56 1069 z m 243 1069 b 307 1132 279 1069 307 1099 b 243 1194 307 1165 279 1194 b 182 1132 210 1194 182 1165 b 243 1069 182 1099 210 1069 z m 121 0 b 232 99 178 0 232 1 l 232 974 b 221 985 232 981 226 985 b 106 885 179 982 106 979 l 106 11 b 121 0 106 1 113 0 z "},"Ð":{"ha":1032,"x_min":0,"x_max":0,"o":"m 28 528 b 124 432 28 493 31 432 l 169 432 l 169 11 b 181 0 169 4 174 0 l 478 0 b 963 488 742 0 963 218 b 479 972 963 757 794 972 l 296 972 b 171 874 233 972 171 949 l 169 539 l 39 539 b 28 528 32 539 28 533 z m 296 432 l 547 432 b 557 456 554 432 557 444 b 461 539 557 474 553 539 l 296 539 l 296 864 l 500 864 b 829 488 658 864 829 751 b 449 107 829 274 681 107 l 294 107 z "},"Ñ":{"ha":899,"x_min":0,"x_max":0,"o":"m 83 899 l 83 11 b 94 0 83 4 89 0 b 192 85 131 1 192 6 l 192 754 l 683 8 b 700 0 688 3 694 0 b 815 99 743 3 815 6 l 815 974 b 804 985 815 981 810 985 b 689 885 761 982 689 979 l 689 231 l 197 978 b 181 986 194 983 188 986 b 83 899 131 986 83 985 z m 249 1111 b 257 1097 247 1106 251 1100 b 311 1083 272 1092 293 1083 b 340 1097 322 1083 333 1088 b 381 1114 346 1106 360 1114 b 399 1113 386 1114 392 1114 b 519 1075 433 1104 468 1075 b 628 1175 557 1075 608 1092 b 618 1190 629 1182 625 1188 b 575 1199 604 1196 589 1199 b 536 1182 557 1199 542 1193 b 511 1169 532 1172 522 1169 b 457 1182 494 1169 475 1175 b 338 1214 419 1196 382 1214 b 249 1111 288 1214 260 1172 z "},"Ò":{"ha":1029,"x_min":0,"x_max":0,"o":"m 515 882 b 826 497 690 882 826 710 b 515 114 826 286 690 114 b 203 497 339 114 203 286 b 515 882 203 710 339 882 z m 69 497 b 515 4 69 225 269 4 b 960 497 761 4 960 225 b 515 990 960 771 761 990 b 69 497 269 990 69 771 z m 306 1250 b 460 1072 356 1178 415 1086 b 506 1064 478 1067 493 1064 b 550 1075 529 1064 543 1071 b 565 1093 568 1083 569 1088 b 435 1294 525 1142 471 1229 b 424 1301 433 1299 428 1301 b 419 1300 422 1301 421 1301 l 310 1263 b 306 1250 304 1260 301 1256 z "},"Ö":{"ha":1029,"x_min":0,"x_max":0,"o":"m 390 1075 b 454 1138 428 1075 454 1104 b 390 1200 454 1171 428 1200 b 329 1138 356 1200 329 1171 b 390 1075 329 1104 356 1075 z m 600 1075 b 664 1138 638 1075 664 1104 b 600 1200 664 1171 638 1200 b 539 1138 565 1200 539 1171 b 600 1075 539 1104 565 1075 z m 508 110 b 201 492 335 110 201 283 b 508 868 201 701 335 868 b 815 492 682 868 815 701 b 508 110 815 283 682 110 z m 508 978 b 69 492 267 978 69 760 b 508 0 69 224 267 0 b 947 492 750 0 947 224 b 508 978 947 760 750 978 z "},"Ø":{"ha":1001,"x_min":0,"x_max":0,"o":"m 926 972 b 863 990 907 983 886 990 b 732 919 825 990 782 971 b 501 990 665 965 586 990 b 56 497 256 990 56 771 b 167 172 56 374 97 260 l 72 47 b 75 35 68 42 69 38 b 140 17 94 24 117 17 b 261 82 179 17 222 35 b 501 4 331 33 413 4 b 946 497 747 4 946 225 b 831 829 946 625 903 742 l 929 961 b 926 972 933 967 932 969 z m 501 114 b 332 172 439 114 381 135 l 754 729 b 819 497 794 665 819 585 b 501 114 819 286 676 114 z m 501 882 b 664 828 560 882 615 863 l 243 274 b 183 497 206 336 183 414 b 501 882 183 710 325 882 z "},"Ú":{"ha":847,"x_min":0,"x_max":0,"o":"m 308 1093 b 318 1078 304 1088 306 1083 b 379 1065 328 1074 353 1065 b 414 1072 390 1065 403 1068 b 568 1250 456 1092 518 1178 b 564 1263 572 1256 569 1260 l 454 1300 b 450 1301 453 1301 451 1301 b 439 1294 446 1301 440 1299 b 308 1093 403 1229 349 1142 z m 94 972 b 83 961 89 972 83 968 l 83 360 b 424 -11 83 53 310 -11 b 764 360 538 -11 764 53 l 764 961 b 753 972 764 968 758 972 b 653 875 701 972 653 940 l 653 382 b 424 103 653 140 515 103 b 211 382 332 103 211 140 l 211 872 b 94 972 211 956 142 972 z "},"Û":{"ha":847,"x_min":0,"x_max":0,"o":"m 244 1088 b 256 1078 240 1082 243 1079 b 282 1076 261 1076 271 1076 b 358 1097 304 1076 335 1079 l 419 1174 l 478 1099 b 572 1071 482 1096 507 1071 b 596 1072 579 1071 588 1071 b 600 1082 601 1072 604 1076 l 490 1229 b 418 1256 476 1247 447 1256 b 347 1232 390 1256 361 1247 z m 94 972 b 83 961 89 972 83 968 l 83 360 b 424 -11 83 53 310 -11 b 764 360 538 -11 764 53 l 764 961 b 753 972 764 968 758 972 b 653 875 701 972 653 940 l 653 382 b 424 103 653 140 515 103 b 211 382 332 103 211 140 l 211 872 b 94 972 211 956 142 972 z "},"Ü":{"ha":847,"x_min":0,"x_max":0,"o":"m 326 1075 b 390 1138 364 1075 390 1104 b 326 1200 390 1171 364 1200 b 265 1138 292 1200 265 1171 b 326 1075 265 1104 292 1075 z m 532 1075 b 596 1138 569 1075 596 1104 b 532 1200 596 1171 569 1200 b 471 1138 497 1200 471 1171 b 532 1075 471 1104 497 1075 z m 94 972 b 83 961 89 972 83 968 l 83 360 b 424 -11 83 53 310 -11 b 764 360 538 -11 764 53 l 764 961 b 753 972 764 968 758 972 b 653 875 701 972 653 940 l 653 382 b 424 103 653 140 515 103 b 211 382 332 103 211 140 l 211 872 b 94 972 211 956 142 972 z "},"Ý":{"ha":839,"x_min":0,"x_max":0,"o":"m 299 1078 b 360 1065 308 1074 333 1065 b 394 1072 371 1065 383 1068 b 549 1250 436 1092 499 1178 b 544 1263 553 1256 550 1260 l 435 1300 b 431 1301 433 1301 432 1301 b 419 1294 426 1301 421 1299 b 289 1093 383 1229 329 1142 b 299 1078 285 1088 286 1083 z m 43 964 l 356 478 l 356 11 b 367 0 356 4 361 0 b 483 99 410 3 483 7 l 483 478 l 796 964 b 790 972 799 969 797 972 b 774 972 785 972 779 972 b 647 931 729 972 674 969 l 431 599 l 218 925 b 57 972 188 971 108 972 b 49 972 54 972 51 972 b 43 964 42 972 40 969 z "},"Ÿ":{"ha":839,"x_min":0,"x_max":0,"o":"m 294 1061 b 376 1143 342 1061 376 1099 b 294 1225 376 1188 342 1225 b 215 1143 250 1225 215 1188 b 294 1061 215 1099 250 1061 z m 544 1061 b 626 1143 592 1061 626 1099 b 544 1225 626 1188 592 1225 b 465 1143 500 1225 465 1188 b 544 1061 465 1099 500 1061 z m 43 964 l 356 478 l 356 11 b 367 0 356 4 361 0 b 483 99 410 3 483 7 l 483 478 l 796 964 b 790 972 799 969 797 972 b 774 972 785 972 779 972 b 647 931 729 972 674 969 l 431 599 l 218 925 b 57 972 188 971 108 972 b 49 972 54 972 51 972 b 43 964 42 972 40 969 z "},"Ž":{"ha":901,"x_min":0,"x_max":0,"o":"m 83 11 b 94 0 83 6 88 0 l 732 0 b 818 97 796 0 818 49 b 807 108 818 104 814 108 l 247 108 l 746 807 b 804 961 776 849 804 900 b 793 972 804 967 800 972 l 125 972 b 115 961 118 972 115 967 b 200 864 115 917 135 864 l 629 864 l 138 175 b 83 11 113 139 83 88 z m 274 1219 l 376 1074 b 443 1049 389 1057 415 1049 b 519 1078 474 1049 506 1058 l 629 1224 b 625 1233 633 1229 631 1233 b 599 1235 615 1235 607 1235 b 507 1208 535 1235 510 1213 l 449 1132 l 388 1208 b 329 1238 369 1232 349 1238 b 281 1229 310 1238 292 1231 b 274 1219 272 1228 269 1225 z "},"Þ":{"ha":710,"x_min":0,"x_max":0,"o":"m 56 889 l 56 10 b 67 -1 56 3 61 -1 b 182 99 110 1 182 21 l 182 246 b 189 253 182 251 185 253 b 193 253 190 253 192 253 b 314 235 231 242 271 235 b 654 526 501 235 654 365 b 313 819 654 688 501 819 b 193 801 271 819 231 813 b 189 801 192 801 190 801 b 182 808 185 801 182 803 l 182 979 b 171 990 182 986 178 990 b 56 889 113 990 56 961 z m 182 376 l 182 678 b 310 710 218 699 261 710 b 528 526 429 710 528 640 b 313 342 528 414 432 342 b 182 376 264 342 218 354 z "},"ß":{"ha":800,"x_min":0,"x_max":0,"o":"m 83 865 l 83 11 b 97 1 83 1 90 1 b 210 93 131 1 210 3 l 210 776 b 388 949 210 865 283 949 b 543 807 465 949 543 903 b 415 636 543 706 463 688 b 415 519 386 604 371 564 b 604 310 476 458 604 435 b 432 107 604 238 560 156 b 386 19 392 92 386 49 b 392 1 386 6 385 1 b 731 308 604 1 731 146 b 521 572 731 463 613 544 b 519 579 514 574 514 576 b 671 819 571 610 671 664 b 381 1057 671 1024 468 1057 b 201 960 282 1057 222 1014 b 83 865 126 960 83 919 z "},"á":{"ha":715,"x_min":0,"x_max":0,"o":"m 522 1017 b 518 1029 526 1022 524 1026 l 408 1067 b 404 1068 407 1068 406 1068 b 393 1061 400 1068 394 1065 b 263 860 357 996 303 908 b 272 844 258 854 260 850 b 333 832 282 840 307 832 b 368 839 346 832 357 835 b 522 1017 411 858 472 944 z m 492 457 b 344 494 444 481 393 494 b 69 233 163 494 69 378 b 307 -6 69 51 214 -6 b 496 69 368 -6 433 18 b 501 72 499 71 500 72 b 504 65 503 72 504 71 b 621 0 504 0 569 0 b 632 11 628 0 632 4 l 632 461 b 371 751 632 692 489 751 b 121 613 304 751 182 732 b 139 582 111 594 122 582 b 153 585 143 582 147 582 b 340 640 243 625 276 640 b 503 464 440 640 503 596 b 497 456 503 458 500 456 b 492 457 496 456 493 456 z m 197 244 b 361 382 197 339 281 382 b 504 346 396 382 457 374 l 504 229 b 325 106 504 161 400 106 b 197 244 235 106 197 182 z "},"à":{"ha":715,"x_min":0,"x_max":0,"o":"m 214 1017 b 368 839 264 944 325 858 b 403 832 379 835 390 832 b 464 844 429 832 454 840 b 474 860 476 850 478 854 b 343 1061 433 908 379 996 b 332 1068 342 1065 336 1068 b 328 1067 331 1068 329 1068 l 218 1029 b 214 1017 213 1026 210 1022 z m 492 457 b 344 494 444 481 393 494 b 69 233 163 494 69 378 b 307 -6 69 51 214 -6 b 496 69 368 -6 433 18 b 501 72 499 71 500 72 b 504 65 503 72 504 71 b 621 0 504 0 569 0 b 632 11 628 0 632 4 l 632 461 b 371 751 632 692 489 751 b 121 613 304 751 182 732 b 139 582 111 594 122 582 b 153 585 143 582 147 582 b 340 640 243 625 276 640 b 503 464 440 640 503 596 b 497 456 503 458 500 456 b 492 457 496 456 493 456 z m 197 244 b 361 382 197 339 281 382 b 504 346 396 382 457 374 l 504 229 b 325 106 504 161 400 106 b 197 244 235 106 197 182 z "},"â":{"ha":715,"x_min":0,"x_max":0,"o":"m 529 851 b 533 861 535 853 538 856 l 431 1007 b 363 1039 415 1029 389 1039 b 288 1003 335 1039 306 1028 l 178 857 b 182 847 174 851 176 847 b 242 843 208 844 228 843 b 300 872 274 843 283 850 l 358 949 l 419 872 b 471 840 438 849 451 840 b 529 851 486 840 504 844 z m 492 457 b 344 494 444 481 393 494 b 69 233 163 494 69 378 b 307 -6 69 51 214 -6 b 496 69 368 -6 433 18 b 501 72 499 71 500 72 b 504 65 503 72 504 71 b 621 0 504 0 569 0 b 632 11 628 0 632 4 l 632 461 b 371 751 632 692 489 751 b 121 613 304 751 182 732 b 139 582 111 594 122 582 b 153 585 143 582 147 582 b 340 640 243 625 276 640 b 503 464 440 640 503 596 b 497 456 503 458 500 456 b 492 457 496 456 493 456 z m 197 244 b 361 382 197 339 281 382 b 504 346 396 382 457 374 l 504 229 b 325 106 504 161 400 106 b 197 244 235 106 197 182 z "},"ã":{"ha":715,"x_min":0,"x_max":0,"o":"m 200 846 b 236 838 211 840 224 838 b 271 853 249 838 261 842 b 311 865 278 860 292 865 b 329 864 317 865 322 865 b 451 826 381 856 406 826 b 560 928 468 826 540 831 b 540 944 561 933 557 939 b 503 951 533 947 518 951 b 468 932 489 951 475 947 b 444 919 465 924 456 919 b 389 933 429 919 407 926 b 274 967 346 950 313 967 b 181 864 208 967 188 921 b 200 846 179 858 183 853 z m 492 457 b 344 494 444 481 393 494 b 69 233 163 494 69 378 b 307 -6 69 51 214 -6 b 496 69 368 -6 433 18 b 501 72 499 71 500 72 b 504 65 503 72 504 71 b 621 0 504 0 569 0 b 632 11 628 0 632 4 l 632 461 b 371 751 632 692 489 751 b 121 613 304 751 182 732 b 139 582 111 594 122 582 b 153 585 143 582 147 582 b 340 640 243 625 276 640 b 503 464 440 640 503 596 b 497 456 503 458 500 456 b 492 457 496 456 493 456 z m 197 244 b 361 382 197 339 281 382 b 504 346 396 382 457 374 l 504 229 b 325 106 504 161 400 106 b 197 244 235 106 197 182 z "},"ä":{"ha":715,"x_min":0,"x_max":0,"o":"m 286 833 b 350 896 322 833 350 863 b 286 958 350 929 322 958 b 225 896 253 958 225 929 b 286 833 225 863 253 833 z m 465 833 b 529 896 501 833 529 863 b 465 958 529 929 501 958 b 404 896 432 958 404 929 b 465 833 404 863 432 833 z m 492 457 b 344 494 444 481 393 494 b 69 233 163 494 69 378 b 307 -6 69 51 214 -6 b 496 69 368 -6 433 18 b 501 72 499 71 500 72 b 504 65 503 72 504 71 b 621 0 504 0 569 0 b 632 11 628 0 632 4 l 632 461 b 371 751 632 692 489 751 b 121 613 304 751 182 732 b 139 582 111 594 122 582 b 153 585 143 582 147 582 b 340 640 243 625 276 640 b 503 464 440 640 503 596 b 497 456 503 458 500 456 b 492 457 496 456 493 456 z m 197 244 b 361 382 197 339 281 382 b 504 346 396 382 457 374 l 504 229 b 325 106 504 161 400 106 b 197 244 235 106 197 182 z "},"å":{"ha":715,"x_min":0,"x_max":0,"o":"m 296 939 b 365 1010 296 978 326 1010 b 435 939 403 1010 435 978 b 365 871 435 900 403 871 b 296 939 326 871 296 900 z m 229 939 b 367 813 229 879 279 813 b 501 939 447 813 501 867 b 364 1068 501 1017 439 1068 b 229 939 278 1068 229 1000 z m 492 457 b 344 494 444 481 393 494 b 69 233 163 494 69 378 b 307 -6 69 51 214 -6 b 496 69 368 -6 433 18 b 501 72 499 71 500 72 b 504 65 503 72 504 71 b 621 0 504 0 569 0 b 632 11 628 0 632 4 l 632 461 b 371 751 632 692 489 751 b 121 613 304 751 182 732 b 139 582 111 594 122 582 b 153 585 143 582 147 582 b 340 640 243 625 276 640 b 503 464 440 640 503 596 b 497 456 503 458 500 456 b 492 457 496 456 493 456 z m 197 244 b 361 382 197 339 281 382 b 504 346 396 382 457 374 l 504 229 b 325 106 504 161 400 106 b 197 244 235 106 197 182 z "},"ç":{"ha":708,"x_min":0,"x_max":0,"o":"m 333 -3 l 285 -103 b 400 -194 279 -126 421 -121 b 367 -219 394 -214 382 -219 b 278 -204 342 -219 307 -204 b 211 -251 243 -204 221 -226 b 218 -268 208 -257 211 -264 b 351 -303 251 -287 303 -303 b 489 -210 411 -303 468 -279 b 401 -67 524 -99 414 -71 l 429 -6 b 667 108 574 1 636 71 b 647 149 681 125 669 149 b 633 146 643 149 639 147 b 439 104 613 138 549 104 b 182 369 308 104 182 192 b 404 631 182 506 271 631 b 586 575 496 631 528 575 b 654 621 617 575 643 590 b 650 639 657 626 654 635 b 399 743 586 704 493 743 b 49 372 182 743 49 569 b 333 -3 49 178 174 28 z "},"è":{"ha":797,"x_min":0,"x_max":0,"o":"m 228 1017 b 382 839 278 944 339 858 b 417 832 393 835 404 832 b 478 844 443 832 468 840 b 488 860 490 850 492 854 b 357 1061 447 908 393 996 b 346 1068 356 1065 350 1068 b 342 1067 344 1068 343 1068 l 232 1029 b 228 1017 226 1026 224 1022 z m 722 433 b 417 749 708 599 600 749 b 69 353 183 749 69 547 b 396 -11 69 156 190 -11 b 672 139 553 -11 643 96 b 654 176 683 154 669 176 b 642 171 650 176 646 174 b 443 100 615 147 549 100 b 217 279 322 100 246 175 l 604 322 b 722 433 664 326 728 364 z m 199 390 b 396 638 199 518 276 638 b 586 432 510 638 586 538 z "},"é":{"ha":797,"x_min":0,"x_max":0,"o":"m 526 1017 b 522 1029 531 1022 528 1026 l 413 1067 b 408 1068 411 1068 410 1068 b 397 1061 404 1068 399 1065 b 267 860 361 996 307 908 b 276 844 263 854 264 850 b 338 832 286 840 311 832 b 372 839 350 832 361 835 b 526 1017 415 858 476 944 z m 722 433 b 417 749 708 599 600 749 b 69 353 183 749 69 547 b 396 -11 69 156 190 -11 b 672 139 553 -11 643 96 b 654 176 683 154 669 176 b 642 171 650 176 646 174 b 443 100 615 147 549 100 b 217 279 322 100 246 175 l 604 322 b 722 433 664 326 728 364 z m 199 390 b 396 638 199 518 276 638 b 586 432 510 638 586 538 z "},"ê":{"ha":797,"x_min":0,"x_max":0,"o":"m 222 839 b 249 838 228 838 238 838 b 325 858 271 838 301 840 l 385 936 l 444 860 b 538 833 449 857 472 833 b 563 835 546 833 554 833 b 567 844 568 835 571 839 l 457 990 b 385 1018 443 1010 414 1018 b 314 994 357 1018 328 1010 l 211 849 b 222 839 207 843 210 840 z m 722 433 b 417 749 708 599 600 749 b 69 353 183 749 69 547 b 396 -11 69 156 190 -11 b 672 139 553 -11 643 96 b 654 176 683 154 669 176 b 642 171 650 176 646 174 b 443 100 615 147 549 100 b 217 279 322 100 246 175 l 604 322 b 722 433 664 326 728 364 z m 199 390 b 396 638 199 518 276 638 b 586 432 510 638 586 538 z "},"ë":{"ha":797,"x_min":0,"x_max":0,"o":"m 496 833 b 560 896 532 833 560 863 b 496 958 560 929 532 958 b 435 896 463 958 435 929 b 496 833 435 863 463 833 z m 317 833 b 381 896 353 833 381 863 b 317 958 381 929 353 958 b 256 896 283 958 256 929 b 317 833 256 863 283 833 z m 722 433 b 417 749 708 599 600 749 b 69 353 183 749 69 547 b 396 -11 69 156 190 -11 b 672 139 553 -11 643 96 b 654 176 683 154 669 176 b 642 171 650 176 646 174 b 443 100 615 147 549 100 b 217 279 322 100 246 175 l 604 322 b 722 433 664 326 728 364 z m 199 390 b 396 638 199 518 276 638 b 586 432 510 638 586 538 z "},"ì":{"ha":319,"x_min":0,"x_max":0,"o":"m 114 4 b 221 108 138 6 221 24 l 221 728 b 210 739 221 735 215 739 b 94 632 168 738 94 732 l 94 14 b 108 4 94 8 99 4 b 114 4 111 4 113 4 z m 43 976 b 165 836 83 919 131 851 b 193 831 174 832 183 831 b 240 840 213 831 233 838 b 249 853 250 844 253 849 b 144 1011 218 892 174 960 b 136 1017 143 1014 140 1017 b 133 1015 136 1017 135 1017 l 46 986 b 43 976 42 983 40 981 z "},"í":{"ha":319,"x_min":0,"x_max":0,"o":"m 115 4 b 222 108 139 6 222 24 l 222 728 b 211 739 222 735 217 739 b 96 632 169 738 96 732 l 96 14 b 110 4 96 8 100 4 b 115 4 113 4 114 4 z m 276 976 b 274 986 279 981 278 983 l 186 1015 b 183 1017 185 1017 183 1017 b 175 1011 179 1017 176 1014 b 71 853 146 960 101 892 b 79 840 67 849 69 844 b 126 831 86 838 107 831 b 154 836 136 831 146 832 b 276 976 189 851 236 919 z "},"î":{"ha":342,"x_min":0,"x_max":0,"o":"m 115 3 b 231 108 158 6 231 10 l 231 728 b 219 739 231 735 225 739 b 104 632 188 736 104 718 l 104 14 b 115 3 104 7 110 3 z m 25 838 b 67 828 35 833 50 828 b 119 854 85 828 103 833 l 171 921 l 219 856 b 300 833 222 853 244 833 b 321 835 307 833 314 835 b 326 843 326 835 329 838 l 232 968 b 165 993 219 985 192 993 b 108 971 142 993 118 986 l 22 847 b 25 838 19 842 21 839 z "},"ï":{"ha":307,"x_min":0,"x_max":0,"o":"m 106 3 b 221 108 149 6 221 10 l 221 728 b 210 739 221 735 215 739 b 94 632 178 736 94 718 l 94 14 b 106 3 94 7 100 3 z m 229 833 b 293 896 265 833 293 863 b 229 958 293 929 265 958 b 168 896 196 958 168 929 b 229 833 168 863 196 833 z m 75 833 b 139 896 111 833 139 863 b 75 958 139 929 111 958 b 14 896 42 958 14 929 b 75 833 14 863 42 833 z "},"ñ":{"ha":696,"x_min":0,"x_max":0,"o":"m 69 649 l 69 8 b 78 1 69 3 72 1 b 197 108 121 4 197 7 l 197 442 b 360 632 197 543 264 632 b 513 439 456 632 513 543 l 513 108 b 632 1 513 7 588 4 b 640 8 638 1 640 3 l 640 440 b 386 740 640 717 450 740 b 206 661 317 740 257 713 b 200 658 204 660 201 658 b 197 664 199 658 197 660 l 197 725 b 186 738 197 738 192 738 b 69 649 122 738 69 708 z m 167 842 b 203 833 175 838 188 833 b 238 843 214 833 225 836 b 275 863 242 854 256 863 b 297 860 282 863 289 863 b 418 824 324 853 381 824 b 526 924 456 824 510 824 b 518 936 528 929 524 935 b 468 946 506 940 486 946 b 436 931 454 946 442 942 b 410 917 432 921 422 917 b 356 929 393 917 374 924 b 238 963 343 935 276 963 b 147 860 188 963 158 921 b 167 842 146 854 150 849 z "},"ò":{"ha":828,"x_min":0,"x_max":0,"o":"m 240 1017 b 394 839 290 944 351 858 b 429 832 406 835 417 832 b 490 844 456 832 481 840 b 500 860 503 850 504 854 b 369 1061 460 908 406 996 b 358 1068 368 1065 363 1068 b 354 1067 357 1068 356 1068 l 244 1029 b 240 1017 239 1026 236 1022 z m 415 743 b 69 371 224 743 69 576 b 415 -6 69 167 224 -6 b 758 371 606 -6 758 167 b 415 743 758 576 606 743 z m 415 103 b 197 371 294 103 197 226 b 415 635 197 515 294 635 b 632 371 533 635 632 515 b 415 103 632 226 533 103 z "},"ó":{"ha":828,"x_min":0,"x_max":0,"o":"m 557 1017 b 553 1029 561 1022 558 1026 l 443 1067 b 439 1068 442 1068 440 1068 b 428 1061 435 1068 429 1065 b 297 860 392 996 338 908 b 307 844 293 854 294 850 b 368 832 317 840 342 832 b 403 839 381 832 392 835 b 557 1017 446 858 507 944 z m 415 743 b 69 371 224 743 69 576 b 415 -6 69 167 224 -6 b 758 371 606 -6 758 167 b 415 743 758 576 606 743 z m 415 103 b 197 371 294 103 197 226 b 415 635 197 515 294 635 b 632 371 533 635 632 515 b 415 103 632 226 533 103 z "},"ô":{"ha":828,"x_min":0,"x_max":0,"o":"m 69 371 b 415 -6 69 167 224 -6 b 758 371 606 -6 758 167 b 415 743 758 576 606 743 b 69 371 224 743 69 576 z m 197 371 b 415 635 197 515 294 635 b 632 371 533 635 632 515 b 415 103 632 226 533 103 b 197 371 294 103 197 226 z m 239 840 b 286 828 250 835 267 828 b 347 860 307 828 328 835 l 407 938 l 465 861 b 556 835 471 854 493 835 b 585 836 564 835 574 835 b 589 846 590 836 593 840 l 479 992 b 407 1019 465 1011 436 1019 b 335 996 379 1019 350 1011 l 233 850 b 239 840 229 844 232 843 z "},"õ":{"ha":828,"x_min":0,"x_max":0,"o":"m 415 743 b 69 371 224 743 69 576 b 415 -6 69 167 224 -6 b 758 371 606 -6 758 167 b 415 743 758 576 606 743 z m 415 103 b 197 371 294 103 197 226 b 415 635 197 515 294 635 b 632 371 533 635 632 515 b 415 103 632 226 533 103 z m 235 846 b 269 838 243 842 256 838 b 306 847 281 838 293 840 b 343 867 310 858 324 867 b 364 864 350 867 357 865 b 486 826 392 857 449 826 b 594 928 524 826 578 826 b 575 944 596 933 592 939 b 539 950 569 946 554 950 b 503 932 525 950 510 946 b 479 921 499 924 490 921 b 424 933 463 921 442 928 b 304 967 410 938 343 967 b 215 864 256 967 226 925 b 235 846 214 858 218 853 z "},"ö":{"ha":828,"x_min":0,"x_max":0,"o":"m 496 833 b 560 896 532 833 560 863 b 496 958 560 929 532 958 b 435 896 463 958 435 929 b 496 833 435 863 463 833 z m 317 833 b 381 896 353 833 381 863 b 317 958 381 929 353 958 b 256 896 283 958 256 929 b 317 833 256 863 283 833 z m 415 103 b 197 371 294 103 197 226 b 415 635 197 515 294 635 b 632 371 533 635 632 515 b 415 103 632 226 533 103 z m 415 743 b 69 371 224 743 69 576 b 415 -6 69 167 224 -6 b 758 371 606 -6 758 167 b 415 743 758 576 606 743 z "},"ø":{"ha":810,"x_min":0,"x_max":0,"o":"m 61 15 b 131 11 81 14 106 11 b 233 50 174 11 217 18 b 414 -4 286 15 349 -4 b 754 364 611 -4 754 172 b 663 617 754 456 722 546 l 735 707 b 719 728 739 713 738 718 b 653 743 700 738 678 743 b 557 699 619 743 583 731 b 410 733 513 721 463 733 b 69 364 213 733 69 557 b 138 144 69 286 93 208 l 57 25 b 61 15 53 19 56 15 z m 415 106 b 303 142 374 106 335 119 l 586 517 b 628 367 614 471 628 417 b 415 106 628 243 546 106 z m 407 624 b 488 607 436 624 463 617 l 218 250 b 197 360 204 286 197 324 b 407 624 197 483 275 624 z "},"ù":{"ha":732,"x_min":0,"x_max":0,"o":"m 188 1017 b 342 839 238 944 299 858 b 376 832 353 835 364 832 b 438 844 403 832 428 840 b 447 860 450 850 451 854 l 317 1061 b 306 1068 315 1065 310 1068 b 301 1067 304 1068 303 1068 l 192 1029 b 188 1017 186 1026 183 1022 z m 649 725 b 638 736 649 731 643 736 b 522 629 567 736 522 685 l 522 313 b 354 111 522 174 440 111 b 210 301 246 111 210 211 l 210 629 b 94 736 210 685 165 736 b 83 725 89 736 83 731 l 83 288 b 318 3 83 118 178 3 b 517 86 406 3 476 49 b 521 89 518 88 519 89 b 525 82 522 89 524 86 b 638 0 531 29 578 0 b 649 13 643 0 649 0 z "},"ú":{"ha":732,"x_min":0,"x_max":0,"o":"m 500 1017 b 496 1029 504 1022 501 1026 l 386 1067 b 382 1068 385 1068 383 1068 b 371 1061 378 1068 372 1065 l 240 860 b 250 844 236 854 238 850 b 311 832 260 840 285 832 b 346 839 324 832 335 835 b 500 1017 389 858 450 944 z m 649 725 b 638 736 649 731 643 736 b 522 629 567 736 522 685 l 522 313 b 354 111 522 174 440 111 b 210 301 246 111 210 211 l 210 629 b 94 736 210 685 165 736 b 83 725 89 736 83 731 l 83 288 b 318 3 83 118 178 3 b 517 86 406 3 476 49 b 521 89 518 88 519 89 b 525 82 522 89 524 86 b 638 0 531 29 578 0 b 649 13 643 0 649 0 z "},"û":{"ha":732,"x_min":0,"x_max":0,"o":"m 207 843 b 224 842 211 842 217 842 b 308 863 242 842 268 846 l 368 940 l 426 864 b 521 838 431 861 456 838 b 546 839 529 838 538 838 b 550 849 551 839 554 843 l 439 994 b 367 1022 425 1013 396 1022 b 296 999 339 1022 311 1014 l 194 853 b 207 843 190 847 193 844 z m 649 725 b 638 736 649 731 643 736 b 522 629 567 736 522 685 l 522 313 b 354 111 522 174 440 111 b 210 301 246 111 210 211 l 210 629 b 94 736 210 685 165 736 b 83 725 89 736 83 731 l 83 288 b 318 3 83 118 178 3 b 517 86 406 3 476 49 b 521 89 518 88 519 89 b 525 82 522 89 524 86 b 638 0 531 29 578 0 b 649 13 643 0 649 0 z "},"ü":{"ha":732,"x_min":0,"x_max":0,"o":"m 279 833 b 343 896 315 833 343 863 b 279 958 343 929 315 958 b 218 896 246 958 218 929 b 279 833 218 863 246 833 z m 458 833 b 522 896 494 833 522 863 b 458 958 522 929 494 958 b 397 896 425 958 397 929 b 458 833 397 863 425 833 z m 649 725 b 638 736 649 731 643 736 b 522 629 567 736 522 685 l 522 313 b 354 111 522 174 440 111 b 210 301 246 111 210 211 l 210 629 b 94 736 210 685 165 736 b 83 725 89 736 83 731 l 83 288 b 318 3 83 118 178 3 b 517 86 406 3 476 49 b 521 89 518 88 519 89 b 525 82 522 89 524 86 b 638 0 531 29 578 0 b 649 13 643 0 649 0 z "},"þ":{"ha":739,"x_min":0,"x_max":0,"o":"m 56 -264 b 67 -275 56 -271 61 -275 b 182 -175 108 -275 182 -256 l 182 79 b 185 85 182 83 183 85 b 189 82 186 85 188 85 b 396 -1 242 24 322 -1 b 711 374 579 -1 711 161 b 368 735 711 596 553 735 b 190 661 314 735 253 719 b 185 658 188 660 186 658 b 182 664 183 658 182 660 l 182 956 b 171 967 182 963 176 967 b 56 853 108 967 56 915 z m 182 436 b 381 626 182 557 289 626 b 583 368 501 626 583 503 b 368 107 583 222 489 107 b 182 288 242 107 182 231 z "},"œ":{"ha":1358,"x_min":0,"x_max":0,"o":"m 1289 415 b 985 733 1289 592 1165 733 b 704 583 875 733 771 674 b 699 579 703 581 700 579 b 692 583 696 579 694 581 b 413 738 629 676 526 738 b 69 369 222 738 69 572 b 413 0 69 165 222 0 b 681 140 521 0 618 56 b 688 144 683 143 685 144 b 694 140 690 144 693 143 b 911 3 765 44 832 3 b 1150 115 994 3 1069 49 b 1149 153 1172 135 1165 153 b 1138 150 1146 153 1142 151 b 950 107 1058 113 981 107 b 763 301 844 107 763 174 b 1167 297 790 301 1044 297 b 1289 415 1243 297 1289 314 z m 413 111 b 196 369 293 111 196 226 b 413 628 196 511 293 628 b 628 369 531 628 628 511 b 413 111 628 226 531 111 z m 1154 408 l 758 408 b 967 625 775 524 865 619 b 1154 408 1093 625 1154 526 z "},"ý":{"ha":763,"x_min":0,"x_max":0,"o":"m 567 1024 b 563 1036 571 1029 568 1033 l 453 1074 b 449 1075 451 1075 450 1075 b 438 1068 444 1075 439 1072 b 307 867 401 1003 347 915 b 317 851 303 861 304 857 b 378 839 326 847 351 839 b 413 846 390 839 401 842 b 567 1024 456 865 517 951 z m 388 -131 l 718 728 b 700 738 721 733 707 738 b 581 671 649 735 601 724 l 379 154 l 181 667 b 29 738 156 731 88 738 b 22 728 22 738 19 733 l 314 -17 l 278 -115 b 154 -199 253 -181 204 -199 b 64 -185 122 -199 89 -190 b 57 -183 61 -185 60 -183 b 43 -229 32 -183 22 -221 b 238 -287 110 -257 182 -287 b 388 -131 299 -287 342 -249 z "},"ÿ":{"ha":763,"x_min":0,"x_max":0,"o":"m 503 843 b 567 906 540 843 567 872 b 503 968 567 939 540 968 b 442 906 468 968 442 939 b 503 843 442 872 468 843 z m 253 843 b 317 906 290 843 317 872 b 253 968 317 939 290 968 b 192 906 218 968 192 939 b 253 843 192 872 218 843 z m 388 -131 l 718 728 b 700 738 721 733 707 738 b 581 671 649 735 601 724 l 379 154 l 181 667 b 29 738 156 731 88 738 b 22 728 22 738 19 733 l 314 -17 l 278 -115 b 154 -199 253 -181 204 -199 b 64 -185 122 -199 89 -190 b 57 -183 61 -185 60 -183 b 43 -229 32 -183 22 -221 b 238 -287 110 -257 182 -287 b 388 -131 299 -287 342 -249 z "},"ž":{"ha":760,"x_min":0,"x_max":0,"o":"m 65 0 l 694 0 b 704 21 701 0 706 6 b 614 108 701 39 686 108 l 268 108 l 656 622 b 703 718 692 671 701 708 b 694 738 706 732 701 738 l 86 738 b 76 726 79 738 76 732 b 167 628 79 690 93 628 l 507 628 l 106 111 b 57 18 68 61 58 28 b 65 0 54 6 58 0 z m 188 985 l 290 839 b 357 814 303 822 329 814 b 433 843 388 814 419 824 l 543 989 b 539 999 547 994 544 999 b 513 1000 529 1000 521 1000 b 421 974 449 1000 424 978 l 363 897 l 301 974 b 238 1006 282 999 258 1006 b 193 994 218 1006 201 999 b 188 985 186 990 183 990 z "},"€":{"ha":956,"x_min":0,"x_max":0,"o":"m 149 550 b 147 431 143 510 144 471 b 69 343 81 422 69 372 b 81 324 69 329 74 324 l 169 324 b 549 0 215 147 350 0 b 847 164 718 0 818 119 b 838 188 856 176 847 188 b 829 185 835 188 832 186 b 606 100 821 179 739 100 b 304 324 461 100 335 193 l 674 324 b 771 413 760 324 771 382 b 760 432 771 426 767 432 l 276 432 b 276 549 271 471 271 510 l 843 549 b 854 568 850 549 854 554 b 757 657 854 600 843 657 l 303 657 b 585 868 349 778 446 868 b 757 849 649 868 707 849 b 865 894 808 849 846 868 b 868 915 876 908 874 913 b 592 975 782 957 688 975 b 172 657 383 975 232 839 l 81 657 b 69 646 74 657 69 651 b 149 550 69 615 82 558 z "},"ﬀ":{"ha":954,"x_min":0,"x_max":0,"o":"m 42 713 b 133 628 44 661 78 628 l 163 628 l 164 13 b 176 3 164 7 167 3 b 188 4 181 3 183 4 b 289 107 204 7 289 24 l 288 628 l 551 628 l 553 13 b 565 3 553 7 556 3 b 576 4 569 3 572 4 b 678 107 593 7 678 24 l 676 628 l 886 628 b 897 639 893 628 897 633 b 807 738 896 675 892 738 l 676 738 b 744 900 676 850 682 900 b 847 878 769 900 803 892 b 869 874 856 875 864 874 b 867 915 899 874 896 903 b 696 974 807 943 753 974 b 551 738 571 974 551 831 l 288 738 b 386 900 288 850 313 900 b 494 878 414 900 450 892 b 517 874 503 875 511 874 b 514 915 546 874 543 903 b 307 974 454 943 399 974 b 163 738 182 974 163 831 l 51 738 b 42 713 44 738 40 732 z "},"ﬁ":{"ha":769,"x_min":0,"x_max":0,"o":"m 42 726 b 164 628 42 653 106 628 l 165 11 b 176 0 165 4 169 0 b 290 107 233 1 290 14 l 289 628 l 544 628 l 544 11 b 556 0 544 4 549 0 b 672 107 615 4 672 39 l 672 632 b 582 739 672 688 642 739 l 289 739 b 385 900 289 851 313 900 b 496 878 414 900 450 893 b 518 874 504 875 513 874 b 515 915 547 874 544 903 b 319 974 456 943 393 974 b 164 738 189 974 164 878 l 53 738 b 42 726 46 738 42 732 z "},"ﬂ":{"ha":889,"x_min":0,"x_max":0,"o":"m 42 713 b 126 626 44 663 75 626 l 164 626 l 165 8 b 175 -1 165 1 169 -3 b 292 104 235 6 292 33 l 289 626 l 500 626 b 511 638 507 626 511 631 b 421 738 511 685 486 738 l 292 738 b 440 885 292 857 381 885 b 571 738 526 885 571 831 l 571 197 b 807 -18 571 49 665 -18 b 833 0 817 -18 833 -14 b 803 19 833 13 826 10 b 697 218 715 54 697 142 l 697 738 b 429 974 697 947 517 974 b 164 738 336 974 164 943 l 51 738 b 42 713 44 738 40 732 z "},"ﬃ":{"ha":1125,"x_min":0,"x_max":0,"o":"m 142 628 l 164 628 l 165 13 b 175 3 165 6 169 1 b 290 107 206 7 290 24 l 289 628 l 547 628 l 549 13 b 558 3 549 6 553 1 b 674 107 589 7 674 24 l 672 628 l 928 628 l 928 11 b 939 1 928 4 933 1 b 1056 107 997 7 1056 42 l 1056 632 b 965 739 1056 688 1025 739 l 672 739 b 768 900 672 851 696 900 b 879 878 797 900 833 893 b 901 874 888 875 896 874 b 899 915 931 874 928 903 b 692 974 839 943 783 974 b 547 738 567 974 547 831 l 289 738 b 386 900 289 850 314 900 b 496 878 415 900 451 892 b 518 874 504 875 513 874 b 515 915 547 874 544 903 b 308 974 456 943 400 974 b 164 738 183 974 164 831 l 53 738 b 42 726 46 738 42 732 b 142 628 46 661 82 628 z "},"Œ":{"ha":1486,"x_min":0,"x_max":0,"o":"m 69 488 b 517 -11 69 235 253 -11 b 836 133 640 -11 754 44 b 840 136 838 136 839 136 b 843 131 842 136 843 135 l 843 11 b 854 1 843 4 847 0 l 1393 1 b 1403 22 1400 1 1404 7 b 1313 110 1400 63 1368 110 l 969 110 l 969 482 l 1275 482 b 1364 568 1331 482 1361 529 b 1354 590 1365 585 1361 590 l 969 590 l 969 865 l 1290 865 b 1379 951 1346 865 1376 913 b 1369 974 1381 968 1376 974 l 969 974 b 843 874 911 974 843 940 l 843 844 b 840 839 843 840 842 839 b 836 842 839 839 838 839 b 517 986 754 931 640 986 b 69 488 253 986 69 740 z m 204 488 b 519 876 204 671 317 876 b 835 488 722 876 835 671 b 519 99 835 306 721 99 b 204 488 317 99 204 306 z "},"Đ":{"ha":1018,"x_min":0,"x_max":0,"o":"m 28 528 b 124 432 28 493 31 432 l 169 432 l 169 11 b 181 0 169 4 174 0 l 478 0 b 963 488 742 0 963 218 b 479 972 963 757 794 972 l 296 972 b 171 874 283 971 171 965 l 169 539 l 39 539 b 28 528 32 539 28 533 z m 296 432 l 547 432 b 557 456 554 432 558 438 b 461 539 557 471 551 539 l 296 539 l 296 864 l 500 864 b 838 488 658 864 838 751 b 449 107 838 274 681 107 l 294 107 z "},"˜":{"ha":490,"x_min":0,"x_max":0,"o":"m 64 833 b 122 819 78 828 103 819 b 146 831 133 819 142 822 b 183 850 150 842 164 850 b 204 847 190 850 197 849 b 326 810 232 840 289 810 b 435 911 364 810 418 810 b 426 925 436 917 432 922 b 390 933 414 929 403 933 b 343 915 375 933 360 928 b 319 904 339 907 331 904 b 264 917 303 904 282 911 b 144 950 250 921 183 950 b 56 847 96 950 67 908 b 64 833 54 842 58 836 z "},"ˆ":{"ha":471,"x_min":0,"x_max":0,"o":"m 61 822 b 119 811 86 815 104 811 b 171 843 139 811 153 819 l 232 919 l 290 843 b 349 814 307 821 317 814 b 408 818 363 814 382 815 b 413 828 414 818 417 822 l 303 974 b 231 1001 289 993 260 1001 b 160 978 201 1001 174 993 l 57 832 b 61 822 53 826 56 824 z "},"¨":{"ha":415,"x_min":0,"x_max":0,"o":"m 117 833 b 181 896 153 833 181 863 b 117 958 181 929 153 958 b 56 896 83 958 56 929 b 117 833 56 863 83 833 z m 296 833 b 360 896 332 833 360 863 b 296 958 360 929 332 958 b 235 896 263 958 235 929 b 296 833 235 863 263 833 z "},"´":{"ha":361,"x_min":0,"x_max":0,"o":"m 318 1017 b 314 1029 322 1022 319 1026 l 204 1067 b 200 1068 203 1068 201 1068 b 189 1061 196 1068 190 1065 b 58 860 153 996 99 908 b 68 844 54 854 56 850 b 129 832 78 840 103 832 b 164 839 142 832 153 835 b 318 1017 207 858 268 944 z "},"¸":{"ha":419,"x_min":0,"x_max":0,"o":"m 138 -103 b 253 -194 138 -128 278 -128 b 203 -225 244 -217 225 -225 b 135 -208 179 -225 153 -217 b 122 -206 131 -207 126 -206 b 65 -253 104 -206 81 -218 b 72 -269 63 -260 65 -267 b 207 -301 110 -286 158 -301 b 342 -210 264 -301 318 -279 b 265 -68 372 -115 304 -75 b 260 -56 258 -67 257 -61 l 286 1 l 189 1 z "},"ˇ":{"ha":471,"x_min":0,"x_max":0,"o":"m 58 985 l 161 839 b 228 814 174 822 200 814 b 304 843 258 814 290 824 l 414 989 b 410 999 418 994 415 999 b 383 1000 400 1000 392 1000 b 292 974 319 1000 294 978 l 233 897 l 172 974 b 111 1006 153 999 131 1006 b 65 994 92 1006 75 999 b 58 985 56 990 54 990 z "},"ð":{"ha":818,"x_min":0,"x_max":0,"o":"m 586 579 b 583 572 588 575 586 572 b 578 575 582 572 581 574 b 374 633 526 610 449 633 b 69 310 199 633 69 497 b 414 -3 69 129 199 -3 b 746 374 622 -3 746 138 b 656 771 746 533 714 668 l 743 807 b 744 831 749 810 751 815 b 665 886 738 843 713 886 b 633 879 656 886 644 883 l 589 861 b 356 974 524 929 453 974 b 104 861 261 974 185 928 b 106 822 82 842 89 822 b 117 825 108 822 113 824 b 297 871 182 856 225 871 b 463 808 363 867 418 844 l 368 769 b 367 746 363 767 360 761 b 443 689 374 732 399 689 b 476 696 453 689 464 690 l 535 721 b 586 579 560 679 576 631 z m 410 525 b 604 313 511 525 604 467 b 408 106 604 146 494 106 b 199 319 265 106 199 215 b 410 525 199 440 288 525 z "},"Ł":{"ha":772,"x_min":0,"x_max":0,"o":"m 18 335 b 97 282 25 321 50 282 b 143 293 111 282 126 285 l 143 11 b 154 0 143 4 147 0 l 693 0 b 703 19 700 0 704 6 b 619 108 701 39 686 108 l 269 108 l 269 350 l 450 432 b 450 454 456 435 457 440 b 371 506 443 467 417 506 b 326 494 358 506 343 503 l 269 468 l 269 961 b 258 972 269 968 264 972 b 143 874 217 971 143 967 l 143 411 l 19 356 b 18 335 14 353 11 347 z "},"đ":{"ha":790,"x_min":0,"x_max":0,"o":"m 56 372 b 367 0 56 163 214 0 b 565 88 449 0 513 38 b 571 90 567 89 569 90 b 574 85 572 90 574 89 b 692 0 574 24 629 0 b 703 11 697 0 703 4 l 703 775 l 765 775 b 776 796 772 775 776 781 b 703 883 775 814 767 881 l 703 961 b 681 975 703 968 700 974 b 579 883 619 975 588 946 l 453 883 b 442 853 446 883 442 879 b 519 775 442 838 443 775 l 578 775 l 578 657 b 575 651 578 653 576 651 b 569 654 574 651 571 653 b 394 728 508 713 460 728 b 56 372 182 728 56 558 z m 182 365 b 382 621 182 499 263 621 b 578 432 472 621 578 551 l 578 286 b 394 107 578 231 519 107 b 182 365 276 107 182 221 z "},"Š":{"ha":746,"x_min":0,"x_max":0,"o":"m 64 43 b 365 -6 149 4 313 -6 b 676 264 540 -6 676 103 b 389 561 676 415 556 492 b 224 750 267 611 219 674 b 390 875 226 790 244 875 b 540 850 443 875 478 864 b 563 847 549 849 556 847 b 651 906 613 847 642 889 b 650 929 658 921 656 926 b 389 985 594 950 542 985 b 97 764 193 985 107 858 b 335 447 83 624 168 521 b 550 246 465 390 550 342 b 317 101 550 124 411 101 b 147 122 231 101 192 122 b 57 67 113 122 61 107 b 64 43 54 53 58 46 z m 194 1219 l 297 1074 b 364 1049 310 1057 336 1049 b 440 1078 394 1049 426 1058 l 550 1224 b 546 1233 554 1229 551 1233 b 519 1235 536 1235 528 1235 b 428 1208 456 1235 431 1213 l 369 1132 l 308 1208 b 246 1240 289 1233 267 1240 b 201 1229 226 1240 210 1233 b 194 1219 193 1225 190 1225 z "},"š":{"ha":613,"x_min":0,"x_max":0,"o":"m 118 985 l 221 839 b 288 814 233 822 260 814 b 364 843 318 814 350 824 l 474 989 b 469 999 478 994 475 999 b 443 1000 460 1000 451 1000 b 351 974 379 1000 354 978 l 293 897 l 232 974 b 168 1006 213 999 189 1006 b 125 994 150 1006 133 999 b 118 985 117 989 114 990 z m 69 78 b 79 61 68 71 74 64 b 318 -7 149 18 254 -7 b 543 210 451 -7 543 97 b 332 454 543 325 444 385 b 222 574 265 494 222 533 b 325 651 222 615 267 651 b 461 618 381 651 415 618 b 528 671 496 618 519 638 b 519 686 529 676 526 682 b 303 753 424 749 331 753 b 93 561 186 753 93 679 b 239 357 93 479 138 422 b 414 200 315 307 414 275 b 288 100 414 149 363 100 b 158 140 228 100 196 129 b 133 144 149 143 140 144 b 69 78 94 144 75 113 z "},"•":{"ha":499,"x_min":0,"x_max":0,"o":"m 253 213 b 443 410 360 213 443 303 b 253 606 443 517 360 606 b 56 410 146 606 56 517 b 253 213 56 303 146 213 z "},"˚":{"ha":389,"x_min":0,"x_max":0,"o":"m 196 1057 b 275 975 239 1057 275 1021 b 196 893 275 931 239 893 b 115 975 151 893 115 931 b 196 1057 115 1021 151 1057 z m 194 849 b 333 975 271 849 333 906 b 194 1103 333 1046 271 1103 b 56 975 118 1103 56 1046 b 194 849 56 906 118 849 z "},"±":{"ha":831,"x_min":0,"x_max":0,"o":"m 56 550 b 138 476 57 532 68 476 l 363 476 l 363 182 b 374 172 363 175 368 172 b 468 260 408 175 468 178 l 468 476 l 764 476 b 775 494 771 476 775 482 b 693 568 774 513 761 568 l 468 568 l 468 863 b 453 872 468 868 464 872 b 447 872 451 872 449 872 b 363 785 429 869 363 854 l 363 568 l 67 568 b 56 550 60 568 56 563 z m 188 93 b 285 4 189 74 201 4 l 621 4 b 632 24 628 4 632 10 b 535 113 631 43 618 113 l 199 113 b 188 93 192 113 188 107 z "},"−":{"ha":765,"x_min":0,"x_max":0,"o":"m 67 575 b 56 564 60 575 56 569 b 200 467 57 528 64 467 l 700 467 b 710 485 707 467 711 472 b 569 575 708 506 692 575 z "},"ƒ":{"ha":678,"x_min":0,"x_max":0,"o":"m 192 -222 b 388 0 299 -222 388 -146 l 386 626 l 596 626 b 606 646 603 626 607 632 b 517 736 604 665 589 736 l 386 736 b 483 899 386 849 411 899 b 593 876 513 899 549 890 b 615 872 601 874 610 872 b 613 914 644 872 642 901 b 406 972 553 942 465 972 b 261 736 281 972 261 829 l 150 736 b 140 711 143 736 139 731 b 261 626 143 651 189 626 l 263 0 b 196 -93 263 -61 236 -93 b 111 54 146 -93 111 -46 b 96 63 111 60 106 63 b 28 18 72 63 28 43 b 192 -222 28 -137 82 -222 z "},"ł":{"ha":446,"x_min":0,"x_max":0,"o":"m 19 346 b 18 324 14 343 11 338 b 97 269 25 310 51 269 b 131 276 107 269 118 272 b 358 0 131 104 157 0 b 367 53 397 0 403 46 b 257 333 250 78 257 253 l 413 403 b 414 425 418 406 421 411 b 338 479 407 439 382 479 b 299 469 325 479 313 476 l 257 451 l 257 961 b 246 972 257 968 251 972 b 131 865 204 969 131 964 l 131 394 z "},"‘":{"ha":304,"x_min":0,"x_max":0,"o":"m 50 713 l 169 713 b 182 722 176 713 181 717 b 261 1054 200 826 231 971 b 251 1065 264 1060 261 1064 b 233 1068 247 1067 240 1068 b 168 1033 217 1068 194 1061 b 42 722 108 969 75 842 b 50 713 40 717 43 713 z "},"’":{"ha":304,"x_min":0,"x_max":0,"o":"m 122 1058 b 43 726 104 954 74 810 b 53 715 40 721 43 717 b 61 714 56 715 58 714 b 136 747 76 714 99 721 b 263 1058 186 797 229 939 b 254 1068 264 1064 261 1068 l 135 1068 b 122 1058 128 1068 124 1064 z "},"“":{"ha":540,"x_min":0,"x_max":0,"o":"m 50 713 l 169 713 b 182 722 176 713 181 717 b 261 1054 200 826 231 971 b 251 1065 264 1060 261 1064 b 235 1067 247 1067 242 1067 b 168 1033 218 1067 196 1061 b 42 722 103 968 75 842 b 50 713 40 717 43 713 z m 286 713 l 406 713 b 418 722 413 713 417 717 b 497 1054 436 826 467 971 b 488 1065 500 1060 497 1064 b 471 1067 483 1067 478 1067 b 404 1033 454 1067 432 1061 b 278 722 340 968 311 842 b 286 713 276 717 279 713 z "},"”":{"ha":540,"x_min":0,"x_max":0,"o":"m 289 715 b 297 714 292 715 294 714 b 372 747 313 714 335 721 b 499 1058 422 797 465 939 b 490 1068 500 1064 497 1068 l 371 1068 b 358 1058 364 1068 360 1064 b 279 726 340 954 310 810 b 289 715 276 721 279 717 z m 53 715 b 61 714 56 715 58 714 b 136 747 76 714 99 721 b 263 1058 186 797 229 939 b 254 1068 264 1064 261 1068 l 135 1068 b 122 1058 128 1068 124 1064 b 43 726 104 954 74 810 b 53 715 40 721 43 717 z "},"×":{"ha":756,"x_min":0,"x_max":0,"o":"m 99 622 l 294 443 l 58 185 b 58 171 54 179 54 175 b 149 139 75 160 111 139 b 217 169 172 139 196 147 l 389 358 l 647 122 b 654 118 649 119 651 118 b 668 128 658 118 663 121 b 658 260 681 143 719 203 l 461 439 l 697 697 b 697 713 701 703 701 708 b 614 751 678 728 649 751 b 540 713 592 751 567 742 l 368 524 l 108 760 b 101 764 107 763 104 764 b 88 754 97 764 93 761 b 99 622 75 739 38 679 z "},"÷":{"ha":738,"x_min":0,"x_max":0,"o":"m 451 163 b 372 244 451 210 417 244 b 290 163 325 244 290 210 b 372 83 290 118 325 83 b 451 163 417 83 451 118 z m 451 643 b 372 724 451 688 417 724 b 290 643 325 724 290 688 b 372 561 290 599 325 561 b 451 643 417 561 451 599 z m 42 442 b 186 344 43 406 50 344 l 686 344 b 696 363 693 344 697 350 b 556 453 694 383 678 453 l 53 453 b 42 442 46 453 42 447 z "},"‚":{"ha":304,"x_min":0,"x_max":0,"o":"m 254 175 l 135 175 b 122 165 128 175 124 171 b 43 -167 104 61 74 -83 b 53 -178 40 -172 43 -176 b 69 -179 57 -179 63 -179 b 136 -146 86 -179 108 -174 b 263 165 200 -81 229 46 b 254 175 264 171 261 175 z "},"„":{"ha":540,"x_min":0,"x_max":0,"o":"m 289 -178 b 297 -179 292 -178 294 -179 b 372 -146 313 -179 335 -172 b 499 165 422 -96 465 46 b 490 175 500 171 497 175 l 371 175 b 358 165 364 175 360 171 b 279 -167 340 61 310 -83 b 289 -178 276 -172 279 -176 z m 53 -178 b 61 -179 56 -178 58 -179 b 136 -146 76 -179 99 -172 b 263 165 186 -96 229 46 b 254 175 264 171 261 175 l 135 175 b 122 165 128 175 124 171 b 43 -167 104 61 74 -83 b 53 -178 40 -172 43 -176 z "},"–":{"ha":601,"x_min":0,"x_max":0,"o":"m 42 453 b 147 356 42 403 69 356 l 549 356 b 560 367 556 356 560 361 b 457 464 558 394 557 464 l 53 464 b 42 453 46 464 42 460 z "},"—":{"ha":1342,"x_min":0,"x_max":0,"o":"m 53 406 b 42 394 46 406 42 400 b 139 297 42 358 44 297 l 1289 297 b 1300 308 1296 297 1300 303 b 1203 406 1299 336 1296 406 z "},"¯":{"ha":601,"x_min":0,"x_max":0,"o":"m 42 1122 b 147 1025 42 1072 69 1025 l 549 1025 b 560 1036 556 1025 560 1031 b 457 1133 558 1064 557 1133 l 53 1133 b 42 1122 46 1133 42 1129 z "},"¬":{"ha":715,"x_min":0,"x_max":0,"o":"m 56 529 b 161 432 56 479 83 432 l 551 432 l 551 94 b 563 83 551 88 556 83 b 660 189 613 83 660 111 l 660 432 b 557 540 660 497 640 540 l 67 540 b 56 529 60 540 56 536 z "},"™":{"ha":1024,"x_min":0,"x_max":0,"o":"m 511 454 b 558 500 521 454 558 458 l 558 801 l 703 460 b 713 454 704 456 708 453 b 747 493 718 456 731 460 l 889 797 l 889 507 b 944 454 889 458 929 454 b 954 460 954 454 954 456 l 954 961 b 947 968 954 964 953 968 b 892 933 939 968 908 967 l 724 582 l 561 963 b 553 969 560 967 557 969 b 500 924 535 969 500 965 l 500 461 b 511 454 500 458 500 454 z m 47 911 l 201 911 l 201 460 b 207 454 201 457 206 454 b 268 507 231 456 268 458 l 268 911 l 381 911 b 428 957 418 911 426 929 b 417 968 428 964 424 968 l 90 968 b 42 917 43 968 42 943 b 47 911 42 913 44 911 z "},"®":{"ha":1114,"x_min":0,"x_max":0,"o":"m 557 -3 b 1044 485 819 -3 1044 210 b 557 974 1044 760 819 974 b 69 485 293 974 69 761 b 557 -3 69 210 293 -3 z m 557 886 b 944 485 768 886 944 726 b 557 83 944 244 768 83 b 172 485 346 83 172 242 b 557 886 172 728 346 886 z m 388 692 l 388 249 b 392 243 388 246 390 243 b 465 293 415 243 465 253 l 465 432 l 508 432 b 582 392 539 432 565 418 l 639 290 b 744 243 661 254 697 243 b 746 249 747 243 747 246 l 660 425 b 624 457 653 438 643 449 b 624 460 619 458 619 458 b 722 596 672 474 722 517 b 557 749 722 692 633 749 l 465 749 b 388 692 435 749 388 721 z m 551 685 b 643 592 592 685 643 654 b 532 500 643 536 603 500 l 465 500 l 465 685 z "},"©":{"ha":1114,"x_min":0,"x_max":0,"o":"m 714 707 b 569 738 668 728 621 738 b 322 482 424 738 322 624 b 561 229 322 344 428 229 b 704 331 643 229 689 308 b 697 344 710 338 704 344 b 694 344 696 344 696 344 b 578 300 689 342 647 300 b 417 483 468 300 417 393 b 567 664 417 572 458 664 b 657 654 599 664 629 654 b 713 696 683 654 701 682 b 714 707 718 703 717 706 z m 69 485 b 557 -3 69 211 294 -3 b 1046 485 819 -3 1046 211 b 557 974 1046 760 819 974 b 69 485 294 974 69 761 z m 172 485 b 557 886 172 729 346 886 b 944 485 769 886 944 728 b 557 83 944 244 769 83 b 172 485 346 83 172 242 z "},"¤":{"ha":783,"x_min":0,"x_max":0,"o":"m 100 783 b 111 651 88 768 46 704 l 140 628 b 106 485 118 585 106 536 b 163 307 106 418 126 356 l 72 200 b 78 179 68 194 67 188 b 143 154 86 172 113 154 b 210 190 164 154 188 164 l 243 231 b 393 188 286 203 338 188 b 556 240 454 188 510 207 l 660 151 b 667 147 661 149 664 147 b 681 157 671 147 675 150 b 671 289 693 172 736 236 l 632 321 b 679 485 661 368 679 424 b 633 649 679 544 663 601 l 710 739 b 704 760 715 743 715 751 b 639 785 694 767 669 785 b 572 750 617 785 594 776 l 557 731 b 393 783 510 764 454 783 b 210 714 324 783 260 757 l 121 789 b 114 793 119 792 117 793 b 100 783 110 793 106 790 z m 206 485 b 393 679 206 592 289 679 b 581 485 496 679 581 592 b 393 290 581 376 496 290 b 206 485 290 290 206 378 z "},"¦":{"ha":261,"x_min":0,"x_max":0,"o":"m 69 389 l 69 -236 b 89 -247 69 -243 75 -247 b 178 -150 108 -246 178 -233 l 178 389 b 167 400 178 396 174 400 l 81 400 b 69 389 74 400 69 396 z m 81 650 l 167 650 b 178 661 174 650 178 654 l 178 1240 b 167 1251 178 1247 172 1251 b 69 1154 131 1251 69 1249 l 69 661 b 81 650 69 654 74 650 z "},"…":{"ha":817,"x_min":0,"x_max":0,"o":"m 138 0 b 217 81 182 0 217 38 b 138 161 217 124 182 161 b 56 81 92 161 56 124 b 138 0 56 38 92 0 z m 410 0 b 489 81 454 0 489 38 b 410 161 489 124 454 161 b 328 81 364 161 328 124 b 410 0 328 38 364 0 z m 682 0 b 761 81 726 0 761 38 b 682 161 761 124 726 161 b 600 81 636 161 600 124 b 682 0 600 38 636 0 z "},"·":{"ha":272,"x_min":0,"x_max":0,"o":"m 56 444 b 138 364 56 401 92 364 b 217 444 182 364 217 401 b 138 525 217 488 182 525 b 56 444 92 525 56 488 z "},"¡":{"ha":300,"x_min":0,"x_max":0,"o":"m 79 -258 b 90 -269 79 -265 85 -269 b 218 -162 133 -267 222 -267 l 196 504 b 185 514 196 511 190 514 b 90 408 150 511 92 494 z m 150 583 b 231 665 194 583 231 621 b 150 744 231 710 194 744 b 69 665 106 744 69 710 b 150 583 69 621 106 583 z "},"¿":{"ha":579,"x_min":0,"x_max":0,"o":"m 383 468 b 372 479 383 475 379 479 b 249 379 325 479 253 463 b 56 -32 249 231 56 150 b 297 -243 56 -168 165 -243 b 524 -119 451 -243 524 -139 b 432 -86 524 -99 468 -86 b 413 -87 425 -86 418 -86 b 297 -132 382 -94 354 -132 b 188 -12 225 -132 188 -75 b 383 382 188 131 383 199 z m 306 583 b 386 663 350 583 386 618 b 306 743 386 707 350 743 b 225 663 261 743 225 707 b 306 583 225 618 261 583 z "},"°":{"ha":483,"x_min":0,"x_max":0,"o":"m 242 1089 b 56 915 138 1089 56 1011 b 242 740 56 819 138 740 b 428 915 344 740 428 821 b 242 1089 428 1011 344 1089 z m 242 1018 b 351 915 301 1018 351 972 b 242 813 351 858 301 813 b 131 915 181 813 131 860 b 242 1018 131 972 181 1018 z "},"ª":{"ha":529,"x_min":0,"x_max":0,"o":"m 363 857 b 261 872 332 867 293 872 b 69 690 133 872 69 792 b 233 525 69 564 169 525 b 365 578 278 525 322 543 b 369 579 367 579 368 579 b 371 574 371 579 371 578 b 453 529 371 529 415 529 b 460 538 458 529 460 532 l 460 850 b 279 1050 460 1010 354 1050 b 104 956 236 1050 146 1039 b 118 932 97 942 106 932 b 128 935 121 932 125 933 b 253 968 189 964 228 968 b 371 861 332 968 371 917 b 365 857 371 858 368 857 b 363 857 365 857 364 857 z m 158 699 b 272 796 158 765 217 796 b 371 783 300 796 342 790 l 371 689 b 247 603 371 642 299 603 b 158 699 183 603 158 656 z "},"º":{"ha":607,"x_min":0,"x_max":0,"o":"m 303 597 b 156 793 222 597 156 688 b 303 986 156 897 222 986 b 451 793 386 986 451 897 b 303 597 451 688 386 597 z m 303 1063 b 69 793 174 1063 69 943 b 303 521 69 644 174 521 b 538 793 432 521 538 644 b 303 1063 538 943 432 1063 z "},"¹":{"ha":314,"x_min":0,"x_max":0,"o":"m 71 1001 b 71 994 68 1000 68 997 b 119 967 81 982 99 967 b 146 975 128 967 138 969 l 146 540 b 151 535 146 536 149 535 b 231 592 183 535 231 535 l 231 1088 b 222 1093 231 1090 228 1093 b 154 1067 207 1093 178 1086 z "},"²":{"ha":501,"x_min":0,"x_max":0,"o":"m 75 522 l 426 522 b 432 528 431 522 432 525 b 383 582 432 563 415 582 l 197 582 b 196 586 194 582 193 583 b 404 929 285 678 404 829 b 238 1088 404 997 344 1088 b 100 1039 171 1088 119 1051 b 101 1028 96 1036 94 1035 b 142 1011 114 1015 128 1011 b 239 1029 172 1011 206 1029 b 335 929 290 1029 335 988 b 92 586 335 810 138 635 b 69 528 71 564 71 553 b 75 522 69 525 72 522 z "},"³":{"ha":460,"x_min":0,"x_max":0,"o":"m 111 851 b 157 800 111 817 122 800 b 319 682 275 800 319 733 b 203 575 319 636 283 575 b 92 611 181 575 135 581 b 85 614 89 613 88 614 b 75 588 74 614 64 600 b 222 514 111 549 157 514 b 390 679 306 514 390 575 b 275 833 390 765 333 819 b 275 836 271 835 271 835 b 365 971 296 846 365 881 b 242 1100 365 1022 344 1100 b 76 1049 193 1100 128 1083 b 76 1039 72 1046 72 1043 b 119 1021 92 1025 106 1021 b 213 1036 146 1021 172 1036 b 296 968 268 1036 296 1006 b 118 858 296 892 183 860 b 111 851 115 858 111 856 z "},"⁄":{"ha":688,"x_min":0,"x_max":0,"o":"m 63 0 b 208 122 122 0 160 25 l 631 969 b 613 979 633 975 629 979 b 490 882 594 979 535 972 l 57 13 b 63 0 54 7 57 0 z "},"¾":{"ha":1036,"x_min":0,"x_max":0,"o":"m 225 0 b 371 122 285 0 322 25 l 793 969 b 775 979 796 975 792 979 b 653 882 757 979 697 972 l 219 13 b 225 0 217 7 219 0 z m 640 175 b 646 168 640 171 643 168 l 861 168 l 861 4 b 867 -1 861 0 864 -1 b 925 51 882 1 925 8 l 925 168 b 967 211 963 168 967 200 b 961 222 967 219 964 222 l 925 222 l 929 517 b 924 524 929 519 928 524 b 888 501 918 524 904 519 l 669 256 b 640 175 643 226 640 208 z m 74 519 b 207 453 108 483 149 453 b 358 601 283 453 358 508 b 256 742 358 679 307 728 b 256 744 253 742 253 743 b 336 865 274 753 336 783 b 224 982 336 911 317 982 b 75 935 182 982 124 967 b 75 926 71 932 71 931 b 115 910 89 914 101 910 b 199 924 139 910 163 924 b 274 861 249 924 274 896 b 114 763 274 792 171 764 b 108 757 110 763 108 760 b 149 710 108 726 118 710 b 294 604 256 710 294 651 b 190 508 294 563 263 508 b 89 540 169 508 128 514 b 83 542 88 542 85 542 b 74 519 72 542 64 529 z m 711 222 l 861 396 l 861 222 z "},"‰":{"ha":1442,"x_min":0,"x_max":0,"o":"m 231 13 b 236 0 228 7 231 0 b 382 122 296 0 333 25 l 804 969 b 786 979 807 975 803 979 b 664 882 768 979 708 972 z m 775 529 b 597 268 682 529 597 408 b 775 -1 597 128 682 -1 b 954 264 867 -1 954 124 b 775 529 954 404 867 529 z m 775 88 b 685 258 724 88 685 171 b 779 442 685 351 728 442 b 867 263 831 442 867 351 b 775 88 867 171 826 88 z m 249 975 b 69 714 157 975 69 856 b 249 446 69 574 157 446 b 426 710 342 446 426 569 b 249 975 426 850 342 975 z m 249 533 b 157 707 197 533 157 615 b 249 886 157 799 197 886 b 339 707 300 886 339 799 b 249 533 339 615 300 533 z m 1193 529 b 1015 268 1100 529 1015 408 b 1193 -1 1015 128 1100 -1 b 1372 264 1285 -1 1372 124 b 1193 529 1372 404 1285 529 z m 1193 88 b 1103 258 1142 88 1103 171 b 1197 442 1103 351 1146 442 b 1285 263 1249 442 1285 351 b 1193 88 1285 171 1244 88 z "},"µ":{"ha":732,"x_min":0,"x_max":0,"o":"m 83 -285 b 99 -296 83 -294 90 -296 b 210 -197 156 -296 210 -294 l 210 18 b 215 25 210 22 211 25 b 219 24 217 25 218 25 b 318 3 249 10 282 3 b 517 86 406 3 476 49 b 521 89 518 88 519 89 b 525 82 522 89 524 86 b 638 0 531 29 578 0 b 649 13 643 0 649 0 l 649 725 b 638 736 649 731 643 736 b 522 629 567 736 522 685 l 522 313 b 354 111 522 174 440 111 b 210 301 246 111 210 211 l 210 629 b 94 736 210 685 165 736 b 83 725 89 736 83 731 z "},"¶":{"ha":907,"x_min":0,"x_max":0,"o":"m 390 381 b 489 401 429 381 461 388 b 493 403 490 403 492 403 b 499 396 497 403 499 400 l 499 -115 b 510 -126 499 -122 503 -126 l 596 -126 b 607 -115 603 -126 607 -122 l 607 928 b 618 939 607 935 611 939 l 704 939 b 715 928 711 939 715 935 l 715 -115 b 726 -126 715 -122 719 -126 l 813 -126 b 824 -115 819 -126 824 -122 l 824 1028 b 813 1039 824 1035 819 1039 l 390 1039 b 69 710 213 1039 69 892 b 390 381 69 528 213 381 z "},"§":{"ha":625,"x_min":0,"x_max":0,"o":"m 556 442 b 344 686 556 557 457 617 b 235 806 278 726 235 765 b 338 883 235 847 279 883 b 474 850 393 883 428 850 b 540 903 508 850 532 869 b 532 918 542 908 539 914 b 315 985 436 981 343 985 b 106 793 199 985 106 911 b 199 626 106 728 133 678 b 197 615 204 622 203 618 b 93 447 135 586 93 526 b 239 243 93 365 138 308 b 414 86 315 193 414 161 b 288 -14 414 35 363 -14 b 158 26 228 -14 196 15 b 132 31 149 29 140 31 b 69 -36 93 31 72 0 b 79 -53 69 -43 74 -50 b 318 -121 149 -96 254 -121 b 543 96 451 -121 543 -17 b 461 253 543 161 511 210 b 463 265 456 257 457 261 b 556 442 521 306 556 372 z m 222 460 b 322 539 222 507 276 539 b 342 536 329 539 336 538 b 426 432 389 508 426 479 b 338 336 426 390 392 350 b 222 460 271 376 222 419 z "},"†":{"ha":803,"x_min":0,"x_max":0,"o":"m 69 961 b 176 864 69 911 97 864 l 336 864 b 347 853 343 864 347 860 l 347 17 b 367 6 347 10 353 6 b 456 103 386 7 456 19 l 456 853 b 467 864 456 860 460 864 l 722 864 b 733 875 729 864 733 869 b 631 972 732 903 731 972 l 467 974 b 456 985 460 974 456 978 l 456 1253 b 444 1264 456 1260 450 1264 b 347 1167 408 1264 347 1261 l 347 985 b 336 974 347 978 343 974 l 81 972 b 69 961 75 972 69 968 z "},"‡":{"ha":801,"x_min":0,"x_max":0,"o":"m 69 308 b 78 289 69 294 72 289 l 318 289 b 329 278 325 289 329 285 l 329 14 b 349 3 329 7 335 3 b 438 100 368 4 438 17 l 438 278 b 449 289 438 285 442 289 l 657 289 b 732 386 721 289 732 353 b 724 397 732 392 729 397 l 449 397 b 438 408 442 397 438 401 l 438 851 b 449 863 438 858 442 863 l 724 863 b 732 882 729 863 732 868 b 657 971 732 913 724 971 l 449 971 b 438 982 442 971 438 975 l 438 1253 b 426 1264 438 1260 432 1264 b 329 1167 390 1264 329 1261 l 329 982 b 318 971 329 975 325 971 l 78 971 b 69 960 72 971 69 965 b 144 863 69 926 81 863 l 318 863 b 329 851 325 863 329 858 l 329 408 b 318 397 329 401 325 397 l 144 397 b 69 308 78 397 69 339 z "},"‹":{"ha":453,"x_min":0,"x_max":0,"o":"m 367 554 l 101 414 b 106 290 40 381 40 319 l 296 204 b 332 196 310 199 321 196 b 393 232 364 196 383 218 b 393 249 400 242 397 247 l 158 358 l 333 453 b 378 550 393 485 385 531 b 371 556 376 553 374 556 b 367 554 369 556 368 556 z "},"›":{"ha":456,"x_min":0,"x_max":0,"o":"m 86 554 b 82 556 85 556 83 556 b 75 550 79 556 76 553 b 119 453 64 524 58 486 l 294 358 l 60 249 b 60 232 56 247 53 242 b 122 196 67 222 89 196 b 157 204 133 196 144 199 l 347 290 b 351 414 419 324 413 381 z "},"«":{"ha":761,"x_min":0,"x_max":0,"o":"m 367 554 l 101 414 b 106 290 40 381 40 319 l 296 204 b 332 196 310 199 321 196 b 393 232 364 196 383 218 b 393 249 400 242 397 247 l 158 358 l 333 453 b 378 550 393 485 385 531 b 371 556 376 553 374 556 b 367 554 369 556 368 556 z m 675 554 l 410 414 b 414 290 349 381 349 319 l 604 204 b 640 196 618 199 629 196 b 701 232 672 196 692 218 b 701 249 708 242 706 247 l 467 358 l 642 453 b 686 550 701 485 693 531 b 679 556 685 553 682 556 b 675 554 678 556 676 556 z "},"»":{"ha":776,"x_min":0,"x_max":0,"o":"m 407 554 b 403 556 406 556 404 556 b 396 550 400 556 397 553 b 440 453 385 524 379 486 l 615 358 l 381 249 b 381 232 376 247 374 242 b 443 196 388 222 410 196 b 478 204 454 196 465 199 l 668 290 b 672 414 740 324 733 381 z m 86 554 b 82 556 85 556 83 556 b 75 550 79 556 76 553 b 119 453 64 524 58 486 l 294 358 l 60 249 b 60 232 56 247 53 242 b 122 196 67 222 89 196 b 157 204 133 196 144 199 l 347 290 b 351 414 419 324 413 381 z "},"˘":{"ha":576,"x_min":0,"x_max":0,"o":"m 78 992 b 72 993 76 993 74 993 b 60 968 61 993 50 981 b 281 831 124 881 196 831 b 517 968 360 831 449 874 b 504 993 526 981 515 993 b 499 992 503 993 500 993 b 278 900 492 986 400 900 b 78 992 160 900 85 986 z "},"˙":{"ha":272,"x_min":0,"x_max":0,"o":"m 138 833 b 217 915 182 833 217 871 b 138 997 217 960 182 997 b 56 915 93 997 56 960 b 138 833 56 871 93 833 z "},"˝":{"ha":592,"x_min":0,"x_max":0,"o":"m 318 1017 b 314 1029 322 1022 319 1026 l 204 1067 b 200 1068 203 1068 201 1068 b 189 1061 196 1068 190 1065 b 58 860 153 996 99 908 b 68 844 54 854 56 850 b 129 832 78 840 103 832 b 164 839 142 832 153 835 b 318 1017 207 858 268 944 z m 535 1017 b 531 1029 539 1022 536 1026 l 421 1067 b 417 1068 419 1068 418 1068 b 406 1061 413 1068 407 1065 b 275 860 369 996 315 908 b 285 844 271 854 272 850 b 346 832 294 840 319 832 b 381 839 358 832 369 835 b 535 1017 424 858 485 944 z "},"˛":{"ha":372,"x_min":0,"x_max":0,"o":"m 307 -281 b 317 -265 314 -278 318 -272 l 303 -189 b 294 -181 301 -183 299 -181 b 290 -182 293 -181 292 -181 b 247 -189 279 -186 264 -189 b 199 -178 232 -189 215 -186 b 146 15 146 -153 132 -81 b 111 58 150 42 129 58 b 89 43 101 58 93 54 b 143 -276 25 -132 58 -235 b 225 -296 169 -289 196 -296 b 307 -281 251 -296 279 -290 z "},"ı":{"ha":307,"x_min":0,"x_max":0,"o":"m 93 1 b 210 107 158 1 210 36 l 210 728 b 200 738 210 735 206 738 b 83 631 142 738 83 700 l 83 11 b 93 1 83 4 88 1 z "}}}
